%TF.GenerationSoftware,KiCad,Pcbnew,9.0.4*%
%TF.CreationDate,2025-11-08T17:36:02+05:30*%
%TF.ProjectId,MOTOR_DRIVER,4d4f544f-525f-4445-9249-5645522e6b69,rev?*%
%TF.SameCoordinates,Original*%
%TF.FileFunction,Copper,L1,Top*%
%TF.FilePolarity,Positive*%
%FSLAX46Y46*%
G04 Gerber Fmt 4.6, Leading zero omitted, Abs format (unit mm)*
G04 Created by KiCad (PCBNEW 9.0.4) date 2025-11-08 17:36:02*
%MOMM*%
%LPD*%
G01*
G04 APERTURE LIST*
G04 Aperture macros list*
%AMRoundRect*
0 Rectangle with rounded corners*
0 $1 Rounding radius*
0 $2 $3 $4 $5 $6 $7 $8 $9 X,Y pos of 4 corners*
0 Add a 4 corners polygon primitive as box body*
4,1,4,$2,$3,$4,$5,$6,$7,$8,$9,$2,$3,0*
0 Add four circle primitives for the rounded corners*
1,1,$1+$1,$2,$3*
1,1,$1+$1,$4,$5*
1,1,$1+$1,$6,$7*
1,1,$1+$1,$8,$9*
0 Add four rect primitives between the rounded corners*
20,1,$1+$1,$2,$3,$4,$5,0*
20,1,$1+$1,$4,$5,$6,$7,0*
20,1,$1+$1,$6,$7,$8,$9,0*
20,1,$1+$1,$8,$9,$2,$3,0*%
G04 Aperture macros list end*
%TA.AperFunction,ComponentPad*%
%ADD10R,1.950000X1.950000*%
%TD*%
%TA.AperFunction,ComponentPad*%
%ADD11C,1.950000*%
%TD*%
%TA.AperFunction,ComponentPad*%
%ADD12C,1.600000*%
%TD*%
%TA.AperFunction,ComponentPad*%
%ADD13R,1.700000X1.700000*%
%TD*%
%TA.AperFunction,ComponentPad*%
%ADD14C,1.700000*%
%TD*%
%TA.AperFunction,ComponentPad*%
%ADD15RoundRect,0.250000X-0.550000X-0.550000X0.550000X-0.550000X0.550000X0.550000X-0.550000X0.550000X0*%
%TD*%
%TA.AperFunction,ViaPad*%
%ADD16C,0.600000*%
%TD*%
%TA.AperFunction,Conductor*%
%ADD17C,0.508000*%
%TD*%
%TA.AperFunction,Conductor*%
%ADD18C,1.524000*%
%TD*%
%TA.AperFunction,Conductor*%
%ADD19C,0.200000*%
%TD*%
G04 APERTURE END LIST*
D10*
%TO.P,J2,1,Pin_1*%
%TO.N,/+V*%
X159027500Y-79050000D03*
D11*
%TO.P,J2,2,Pin_2*%
%TO.N,GND*%
X153947500Y-79050000D03*
%TD*%
D12*
%TO.P,C1,1*%
%TO.N,VCC*%
X165000000Y-89500000D03*
%TO.P,C1,2*%
%TO.N,GND*%
X170000000Y-89500000D03*
%TD*%
D13*
%TO.P,J3,1,Pin_1*%
%TO.N,/EN1*%
X146500000Y-90000000D03*
D14*
%TO.P,J3,2,Pin_2*%
%TO.N,VCC*%
X146500000Y-92540000D03*
%TD*%
D15*
%TO.P,U1,1,EN1\u002C2*%
%TO.N,/EN1*%
X153195000Y-88610000D03*
D12*
%TO.P,U1,2,1A*%
%TO.N,/IN1*%
X153195000Y-91150000D03*
%TO.P,U1,3,1Y*%
%TO.N,/OUT1*%
X153195000Y-93690000D03*
%TO.P,U1,4,GND*%
%TO.N,GND*%
X153195000Y-96230000D03*
%TO.P,U1,5,GND*%
X153195000Y-98770000D03*
%TO.P,U1,6,2Y*%
%TO.N,/OUT2*%
X153195000Y-101310000D03*
%TO.P,U1,7,2A*%
%TO.N,/IN2*%
X153195000Y-103850000D03*
%TO.P,U1,8,VCC2*%
%TO.N,/+V*%
X153195000Y-106390000D03*
%TO.P,U1,9,EN3\u002C4*%
%TO.N,/EN2*%
X160815000Y-106390000D03*
%TO.P,U1,10,3A*%
%TO.N,/IN3*%
X160815000Y-103850000D03*
%TO.P,U1,11,3Y*%
%TO.N,/OUT3*%
X160815000Y-101310000D03*
%TO.P,U1,12,GND*%
%TO.N,GND*%
X160815000Y-98770000D03*
%TO.P,U1,13,GND*%
X160815000Y-96230000D03*
%TO.P,U1,14,4Y*%
%TO.N,/OUT4*%
X160815000Y-93690000D03*
%TO.P,U1,15,4A*%
%TO.N,/IN4*%
X160815000Y-91150000D03*
%TO.P,U1,16,VCC1*%
%TO.N,VCC*%
X160815000Y-88610000D03*
%TD*%
D15*
%TO.P,C2,1*%
%TO.N,/+V*%
X166000000Y-83000000D03*
D12*
%TO.P,C2,2*%
%TO.N,GND*%
X168500000Y-83000000D03*
%TD*%
D13*
%TO.P,J1,1,Pin_1*%
%TO.N,/IN1*%
X148840000Y-111500000D03*
D14*
%TO.P,J1,2,Pin_2*%
%TO.N,/IN2*%
X151380000Y-111500000D03*
%TO.P,J1,3,Pin_3*%
%TO.N,/IN3*%
X153920000Y-111500000D03*
%TO.P,J1,4,Pin_4*%
%TO.N,/IN4*%
X156460000Y-111500000D03*
%TO.P,J1,5,Pin_5*%
%TO.N,/EN1*%
X159000000Y-111500000D03*
%TO.P,J1,6,Pin_6*%
%TO.N,/EN2*%
X161540000Y-111500000D03*
%TO.P,J1,7,Pin_7*%
%TO.N,VCC*%
X164080000Y-111500000D03*
%TO.P,J1,8,Pin_8*%
%TO.N,GND*%
X166620000Y-111500000D03*
%TD*%
D12*
%TO.P,C3,1*%
%TO.N,/+V*%
X165000000Y-94000000D03*
%TO.P,C3,2*%
%TO.N,GND*%
X170000000Y-94000000D03*
%TD*%
D10*
%TO.P,J6,1,Pin_1*%
%TO.N,/OUT3*%
X168025000Y-105027500D03*
D11*
%TO.P,J6,2,Pin_2*%
%TO.N,/OUT4*%
X168025000Y-99947500D03*
%TD*%
D13*
%TO.P,J4,1,Pin_1*%
%TO.N,/EN2*%
X146500000Y-81225000D03*
D14*
%TO.P,J4,2,Pin_2*%
%TO.N,VCC*%
X146500000Y-83765000D03*
%TD*%
D10*
%TO.P,J5,1,Pin_1*%
%TO.N,/OUT1*%
X146475000Y-99972500D03*
D11*
%TO.P,J5,2,Pin_2*%
%TO.N,/OUT2*%
X146475000Y-105052500D03*
%TD*%
D16*
%TO.N,VCC*%
X171000000Y-97500000D03*
%TO.N,GND*%
X154500000Y-81500000D03*
%TO.N,/+V*%
X153000000Y-108000000D03*
%TO.N,/IN4*%
X156500000Y-109000000D03*
%TO.N,/IN3*%
X157500000Y-106000000D03*
%TD*%
D17*
%TO.N,VCC*%
X142500000Y-107770000D02*
X142500000Y-96540000D01*
X148730000Y-114000000D02*
X142500000Y-107770000D01*
X161580000Y-114000000D02*
X148730000Y-114000000D01*
X171000000Y-105000000D02*
X171000000Y-97500000D01*
X164500000Y-111500000D02*
X171000000Y-105000000D01*
X164080000Y-111500000D02*
X164500000Y-111500000D01*
X160815000Y-88610000D02*
X161705000Y-89500000D01*
%TO.N,GND*%
X153947500Y-80947500D02*
X154500000Y-81500000D01*
X153947500Y-79050000D02*
X153947500Y-80947500D01*
X157497500Y-75500000D02*
X153947500Y-79050000D01*
X161000000Y-75500000D02*
X157497500Y-75500000D01*
X168500000Y-83000000D02*
X161000000Y-75500000D01*
X170000000Y-84500000D02*
X168500000Y-83000000D01*
X170000000Y-89500000D02*
X170000000Y-84500000D01*
X170000000Y-94000000D02*
X170000000Y-89500000D01*
%TO.N,VCC*%
X142500000Y-96540000D02*
X146500000Y-92540000D01*
X164080000Y-111500000D02*
X161580000Y-114000000D01*
D18*
%TO.N,/+V*%
X162050000Y-79050000D02*
X166000000Y-83000000D01*
X159027500Y-79050000D02*
X162050000Y-79050000D01*
X167000000Y-84000000D02*
X166000000Y-83000000D01*
X167000000Y-92000000D02*
X167000000Y-84000000D01*
X165000000Y-94000000D02*
X167000000Y-92000000D01*
D17*
%TO.N,VCC*%
X165000000Y-89500000D02*
X161705000Y-89500000D01*
D18*
%TO.N,/+V*%
X153195000Y-107805000D02*
X153000000Y-108000000D01*
X153195000Y-106390000D02*
X153195000Y-107805000D01*
D19*
%TO.N,/EN1*%
X155500000Y-90915000D02*
X153195000Y-88610000D01*
X155500000Y-103000000D02*
X155500000Y-90915000D01*
X159000000Y-111500000D02*
X159000000Y-106500000D01*
X159000000Y-106500000D02*
X155500000Y-103000000D01*
%TO.N,/IN4*%
X156460000Y-109040000D02*
X156500000Y-109000000D01*
X156460000Y-111500000D02*
X156460000Y-109040000D01*
%TO.N,/IN3*%
X153920000Y-109580000D02*
X157500000Y-106000000D01*
X153920000Y-111500000D02*
X153920000Y-109580000D01*
%TO.N,/IN2*%
X151380000Y-105665000D02*
X153195000Y-103850000D01*
X151380000Y-111500000D02*
X151380000Y-105665000D01*
%TO.N,/IN1*%
X152745500Y-91150000D02*
X153195000Y-91150000D01*
X144000000Y-99895500D02*
X152745500Y-91150000D01*
X144000000Y-106500000D02*
X144000000Y-99895500D01*
X148840000Y-111340000D02*
X144000000Y-106500000D01*
X148840000Y-111500000D02*
X148840000Y-111340000D01*
D18*
%TO.N,/OUT2*%
X149452500Y-105052500D02*
X153195000Y-101310000D01*
X146475000Y-105052500D02*
X149452500Y-105052500D01*
%TO.N,/OUT1*%
X146912500Y-99972500D02*
X153195000Y-93690000D01*
X146475000Y-99972500D02*
X146912500Y-99972500D01*
%TO.N,/OUT4*%
X168025000Y-99947500D02*
X167072500Y-99947500D01*
X167072500Y-99947500D02*
X160815000Y-93690000D01*
%TO.N,/OUT3*%
X164532500Y-105027500D02*
X160815000Y-101310000D01*
X168025000Y-105027500D02*
X164532500Y-105027500D01*
D17*
%TO.N,VCC*%
X143000000Y-89040000D02*
X146500000Y-92540000D01*
X143000000Y-84500000D02*
X143000000Y-89040000D01*
X143735000Y-83765000D02*
X143000000Y-84500000D01*
X146500000Y-83765000D02*
X143735000Y-83765000D01*
D19*
%TO.N,/EN1*%
X146500000Y-90000000D02*
X147000000Y-90000000D01*
X147000000Y-90000000D02*
X148390000Y-88610000D01*
X148390000Y-88610000D02*
X153195000Y-88610000D01*
%TO.N,/EN2*%
X151725000Y-81225000D02*
X146500000Y-81225000D01*
X156500000Y-102075000D02*
X156500000Y-86000000D01*
X160815000Y-106390000D02*
X156500000Y-102075000D01*
X156500000Y-86000000D02*
X151725000Y-81225000D01*
X161540000Y-107115000D02*
X160815000Y-106390000D01*
X161540000Y-111500000D02*
X161540000Y-107115000D01*
%TD*%
%TA.AperFunction,Conductor*%
%TO.N,GND*%
G36*
X152795000Y-98822661D02*
G01*
X152822259Y-98924394D01*
X152874920Y-99015606D01*
X152949394Y-99090080D01*
X153040606Y-99142741D01*
X153142339Y-99170000D01*
X153148553Y-99170000D01*
X152469077Y-99849474D01*
X152470399Y-99866271D01*
X152467539Y-99879881D01*
X152469519Y-99893647D01*
X152460498Y-99913398D01*
X152456035Y-99934648D01*
X152446271Y-99944551D01*
X152440494Y-99957203D01*
X152422225Y-99968943D01*
X152406983Y-99984405D01*
X152392212Y-99988231D01*
X152381716Y-99994977D01*
X152346781Y-100000000D01*
X152124000Y-100000000D01*
X152056961Y-99980315D01*
X152011206Y-99927511D01*
X152000000Y-99876000D01*
X152000000Y-99620972D01*
X152019685Y-99553933D01*
X152072489Y-99508178D01*
X152109877Y-99501569D01*
X152795000Y-98816446D01*
X152795000Y-98822661D01*
G37*
%TD.AperFunction*%
%TA.AperFunction,Conductor*%
G36*
X154842539Y-95019685D02*
G01*
X154888294Y-95072489D01*
X154899500Y-95124000D01*
X154899500Y-99876000D01*
X154879815Y-99943039D01*
X154827011Y-99988794D01*
X154775500Y-100000000D01*
X154043218Y-100000000D01*
X153976179Y-99980315D01*
X153930424Y-99927511D01*
X153919600Y-99866271D01*
X153920921Y-99849474D01*
X153241447Y-99170000D01*
X153247661Y-99170000D01*
X153349394Y-99142741D01*
X153440606Y-99090080D01*
X153515080Y-99015606D01*
X153567741Y-98924394D01*
X153595000Y-98822661D01*
X153595000Y-98816447D01*
X154274474Y-99495921D01*
X154306859Y-99451349D01*
X154399755Y-99269031D01*
X154462990Y-99074417D01*
X154495000Y-98872317D01*
X154495000Y-98667682D01*
X154462990Y-98465582D01*
X154399755Y-98270968D01*
X154306859Y-98088650D01*
X154274474Y-98044077D01*
X154274474Y-98044076D01*
X153595000Y-98723551D01*
X153595000Y-98717339D01*
X153567741Y-98615606D01*
X153515080Y-98524394D01*
X153440606Y-98449920D01*
X153349394Y-98397259D01*
X153247661Y-98370000D01*
X153241446Y-98370000D01*
X153920922Y-97690524D01*
X153920921Y-97690523D01*
X153876359Y-97658147D01*
X153876350Y-97658141D01*
X153782819Y-97610485D01*
X153732023Y-97562511D01*
X153715228Y-97494690D01*
X153737765Y-97428555D01*
X153782820Y-97389515D01*
X153876346Y-97341861D01*
X153876347Y-97341861D01*
X153920921Y-97309474D01*
X153241447Y-96630000D01*
X153247661Y-96630000D01*
X153349394Y-96602741D01*
X153440606Y-96550080D01*
X153515080Y-96475606D01*
X153567741Y-96384394D01*
X153595000Y-96282661D01*
X153595000Y-96276447D01*
X154274474Y-96955921D01*
X154306859Y-96911349D01*
X154399755Y-96729031D01*
X154462990Y-96534417D01*
X154495000Y-96332317D01*
X154495000Y-96127682D01*
X154462990Y-95925582D01*
X154399755Y-95730968D01*
X154306859Y-95548650D01*
X154274474Y-95504077D01*
X154274474Y-95504076D01*
X153595000Y-96183551D01*
X153595000Y-96177339D01*
X153567741Y-96075606D01*
X153515080Y-95984394D01*
X153440606Y-95909920D01*
X153349394Y-95857259D01*
X153247661Y-95830000D01*
X153241446Y-95830000D01*
X153920921Y-95150525D01*
X153919600Y-95133729D01*
X153933964Y-95065352D01*
X153983015Y-95015595D01*
X154043218Y-95000000D01*
X154775500Y-95000000D01*
X154842539Y-95019685D01*
G37*
%TD.AperFunction*%
%TA.AperFunction,Conductor*%
G36*
X160033820Y-95019685D02*
G01*
X160079575Y-95072489D01*
X160090399Y-95133729D01*
X160089077Y-95150524D01*
X160768554Y-95830000D01*
X160762339Y-95830000D01*
X160660606Y-95857259D01*
X160569394Y-95909920D01*
X160494920Y-95984394D01*
X160442259Y-96075606D01*
X160415000Y-96177339D01*
X160415000Y-96183553D01*
X159735524Y-95504077D01*
X159735523Y-95504077D01*
X159703143Y-95548644D01*
X159610244Y-95730968D01*
X159547009Y-95925582D01*
X159515000Y-96127682D01*
X159515000Y-96332317D01*
X159547009Y-96534417D01*
X159610244Y-96729031D01*
X159703141Y-96911350D01*
X159703147Y-96911359D01*
X159735523Y-96955921D01*
X159735524Y-96955922D01*
X160415000Y-96276446D01*
X160415000Y-96282661D01*
X160442259Y-96384394D01*
X160494920Y-96475606D01*
X160569394Y-96550080D01*
X160660606Y-96602741D01*
X160762339Y-96630000D01*
X160768553Y-96630000D01*
X160089076Y-97309474D01*
X160133650Y-97341859D01*
X160227180Y-97389515D01*
X160277976Y-97437489D01*
X160294771Y-97505310D01*
X160272234Y-97571445D01*
X160227180Y-97610485D01*
X160133644Y-97658143D01*
X160089077Y-97690523D01*
X160089077Y-97690524D01*
X160768554Y-98370000D01*
X160762339Y-98370000D01*
X160660606Y-98397259D01*
X160569394Y-98449920D01*
X160494920Y-98524394D01*
X160442259Y-98615606D01*
X160415000Y-98717339D01*
X160415000Y-98723553D01*
X159735524Y-98044077D01*
X159735523Y-98044077D01*
X159703143Y-98088644D01*
X159610244Y-98270968D01*
X159547009Y-98465582D01*
X159515000Y-98667682D01*
X159515000Y-98872317D01*
X159547009Y-99074417D01*
X159610244Y-99269031D01*
X159703141Y-99451350D01*
X159703147Y-99451359D01*
X159735523Y-99495921D01*
X159735524Y-99495922D01*
X160415000Y-98816446D01*
X160415000Y-98822661D01*
X160442259Y-98924394D01*
X160494920Y-99015606D01*
X160569394Y-99090080D01*
X160660606Y-99142741D01*
X160762339Y-99170000D01*
X160768553Y-99170000D01*
X160089077Y-99849474D01*
X160090399Y-99866271D01*
X160076035Y-99934648D01*
X160026983Y-99984405D01*
X159966781Y-100000000D01*
X157224500Y-100000000D01*
X157157461Y-99980315D01*
X157111706Y-99927511D01*
X157100500Y-99876000D01*
X157100500Y-95124000D01*
X157120185Y-95056961D01*
X157172989Y-95011206D01*
X157224500Y-95000000D01*
X159966781Y-95000000D01*
X160033820Y-95019685D01*
G37*
%TD.AperFunction*%
%TA.AperFunction,Conductor*%
G36*
X161904783Y-99506231D02*
G01*
X161934646Y-99512504D01*
X161984404Y-99561554D01*
X162000000Y-99621759D01*
X162000000Y-99876000D01*
X161997449Y-99884685D01*
X161998738Y-99893647D01*
X161987759Y-99917687D01*
X161980315Y-99943039D01*
X161973474Y-99948966D01*
X161969713Y-99957203D01*
X161947478Y-99971492D01*
X161927511Y-99988794D01*
X161916996Y-99991081D01*
X161910935Y-99994977D01*
X161876000Y-100000000D01*
X161663218Y-100000000D01*
X161596179Y-99980315D01*
X161550424Y-99927511D01*
X161539600Y-99866271D01*
X161540921Y-99849474D01*
X160861447Y-99170000D01*
X160867661Y-99170000D01*
X160969394Y-99142741D01*
X161060606Y-99090080D01*
X161135080Y-99015606D01*
X161187741Y-98924394D01*
X161215000Y-98822661D01*
X161215000Y-98816447D01*
X161904783Y-99506231D01*
G37*
%TD.AperFunction*%
%TA.AperFunction,Conductor*%
G36*
X152795000Y-96282661D02*
G01*
X152822259Y-96384394D01*
X152874920Y-96475606D01*
X152949394Y-96550080D01*
X153040606Y-96602741D01*
X153142339Y-96630000D01*
X153148553Y-96630000D01*
X152469076Y-97309474D01*
X152513650Y-97341859D01*
X152607180Y-97389515D01*
X152657976Y-97437489D01*
X152674771Y-97505310D01*
X152652234Y-97571445D01*
X152607180Y-97610485D01*
X152513644Y-97658143D01*
X152469077Y-97690523D01*
X152469077Y-97690524D01*
X153148554Y-98370000D01*
X153142339Y-98370000D01*
X153040606Y-98397259D01*
X152949394Y-98449920D01*
X152874920Y-98524394D01*
X152822259Y-98615606D01*
X152795000Y-98717339D01*
X152795000Y-98723553D01*
X152108868Y-98037421D01*
X152065351Y-98028279D01*
X152015594Y-97979228D01*
X152000000Y-97919026D01*
X152000000Y-97080972D01*
X152019685Y-97013933D01*
X152072489Y-96968178D01*
X152109876Y-96961569D01*
X152795000Y-96276445D01*
X152795000Y-96282661D01*
G37*
%TD.AperFunction*%
%TA.AperFunction,Conductor*%
G36*
X161904783Y-96966231D02*
G01*
X161934646Y-96972504D01*
X161984404Y-97021554D01*
X162000000Y-97081759D01*
X162000000Y-97918239D01*
X161980315Y-97985278D01*
X161927511Y-98031033D01*
X161903225Y-98035325D01*
X161215000Y-98723551D01*
X161215000Y-98717339D01*
X161187741Y-98615606D01*
X161135080Y-98524394D01*
X161060606Y-98449920D01*
X160969394Y-98397259D01*
X160867661Y-98370000D01*
X160861446Y-98370000D01*
X161540922Y-97690524D01*
X161540921Y-97690523D01*
X161496359Y-97658147D01*
X161496350Y-97658141D01*
X161402819Y-97610485D01*
X161352023Y-97562511D01*
X161335228Y-97494690D01*
X161357765Y-97428555D01*
X161402820Y-97389515D01*
X161496346Y-97341861D01*
X161496347Y-97341861D01*
X161540921Y-97309474D01*
X160861447Y-96630000D01*
X160867661Y-96630000D01*
X160969394Y-96602741D01*
X161060606Y-96550080D01*
X161135080Y-96475606D01*
X161187741Y-96384394D01*
X161215000Y-96282661D01*
X161215000Y-96276446D01*
X161904783Y-96966231D01*
G37*
%TD.AperFunction*%
%TD*%
M02*
