%TF.GenerationSoftware,KiCad,Pcbnew,9.0.4*%
%TF.CreationDate,2025-11-08T17:36:02+05:30*%
%TF.ProjectId,MOTOR_DRIVER,4d4f544f-525f-4445-9249-5645522e6b69,rev?*%
%TF.SameCoordinates,Original*%
%TF.FileFunction,Copper,L2,Bot*%
%TF.FilePolarity,Positive*%
%FSLAX46Y46*%
G04 Gerber Fmt 4.6, Leading zero omitted, Abs format (unit mm)*
G04 Created by KiCad (PCBNEW 9.0.4) date 2025-11-08 17:36:02*
%MOMM*%
%LPD*%
G01*
G04 APERTURE LIST*
G04 Aperture macros list*
%AMRoundRect*
0 Rectangle with rounded corners*
0 $1 Rounding radius*
0 $2 $3 $4 $5 $6 $7 $8 $9 X,Y pos of 4 corners*
0 Add a 4 corners polygon primitive as box body*
4,1,4,$2,$3,$4,$5,$6,$7,$8,$9,$2,$3,0*
0 Add four circle primitives for the rounded corners*
1,1,$1+$1,$2,$3*
1,1,$1+$1,$4,$5*
1,1,$1+$1,$6,$7*
1,1,$1+$1,$8,$9*
0 Add four rect primitives between the rounded corners*
20,1,$1+$1,$2,$3,$4,$5,0*
20,1,$1+$1,$4,$5,$6,$7,0*
20,1,$1+$1,$6,$7,$8,$9,0*
20,1,$1+$1,$8,$9,$2,$3,0*%
G04 Aperture macros list end*
%TA.AperFunction,ComponentPad*%
%ADD10R,1.950000X1.950000*%
%TD*%
%TA.AperFunction,ComponentPad*%
%ADD11C,1.950000*%
%TD*%
%TA.AperFunction,ComponentPad*%
%ADD12C,1.600000*%
%TD*%
%TA.AperFunction,ComponentPad*%
%ADD13R,1.700000X1.700000*%
%TD*%
%TA.AperFunction,ComponentPad*%
%ADD14C,1.700000*%
%TD*%
%TA.AperFunction,ComponentPad*%
%ADD15RoundRect,0.250000X-0.550000X-0.550000X0.550000X-0.550000X0.550000X0.550000X-0.550000X0.550000X0*%
%TD*%
%TA.AperFunction,ViaPad*%
%ADD16C,0.600000*%
%TD*%
%TA.AperFunction,Conductor*%
%ADD17C,0.508000*%
%TD*%
%TA.AperFunction,Conductor*%
%ADD18C,1.524000*%
%TD*%
%TA.AperFunction,Conductor*%
%ADD19C,0.200000*%
%TD*%
G04 APERTURE END LIST*
D10*
%TO.P,J2,1,Pin_1*%
%TO.N,/+V*%
X159027500Y-79050000D03*
D11*
%TO.P,J2,2,Pin_2*%
%TO.N,GND*%
X153947500Y-79050000D03*
%TD*%
D12*
%TO.P,C1,1*%
%TO.N,VCC*%
X165000000Y-89500000D03*
%TO.P,C1,2*%
%TO.N,GND*%
X170000000Y-89500000D03*
%TD*%
D13*
%TO.P,J3,1,Pin_1*%
%TO.N,/EN1*%
X146500000Y-90000000D03*
D14*
%TO.P,J3,2,Pin_2*%
%TO.N,VCC*%
X146500000Y-92540000D03*
%TD*%
D15*
%TO.P,U1,1,EN1\u002C2*%
%TO.N,/EN1*%
X153195000Y-88610000D03*
D12*
%TO.P,U1,2,1A*%
%TO.N,/IN1*%
X153195000Y-91150000D03*
%TO.P,U1,3,1Y*%
%TO.N,/OUT1*%
X153195000Y-93690000D03*
%TO.P,U1,4,GND*%
%TO.N,GND*%
X153195000Y-96230000D03*
%TO.P,U1,5,GND*%
X153195000Y-98770000D03*
%TO.P,U1,6,2Y*%
%TO.N,/OUT2*%
X153195000Y-101310000D03*
%TO.P,U1,7,2A*%
%TO.N,/IN2*%
X153195000Y-103850000D03*
%TO.P,U1,8,VCC2*%
%TO.N,/+V*%
X153195000Y-106390000D03*
%TO.P,U1,9,EN3\u002C4*%
%TO.N,/EN2*%
X160815000Y-106390000D03*
%TO.P,U1,10,3A*%
%TO.N,/IN3*%
X160815000Y-103850000D03*
%TO.P,U1,11,3Y*%
%TO.N,/OUT3*%
X160815000Y-101310000D03*
%TO.P,U1,12,GND*%
%TO.N,GND*%
X160815000Y-98770000D03*
%TO.P,U1,13,GND*%
X160815000Y-96230000D03*
%TO.P,U1,14,4Y*%
%TO.N,/OUT4*%
X160815000Y-93690000D03*
%TO.P,U1,15,4A*%
%TO.N,/IN4*%
X160815000Y-91150000D03*
%TO.P,U1,16,VCC1*%
%TO.N,VCC*%
X160815000Y-88610000D03*
%TD*%
D15*
%TO.P,C2,1*%
%TO.N,/+V*%
X166000000Y-83000000D03*
D12*
%TO.P,C2,2*%
%TO.N,GND*%
X168500000Y-83000000D03*
%TD*%
D13*
%TO.P,J1,1,Pin_1*%
%TO.N,/IN1*%
X148840000Y-111500000D03*
D14*
%TO.P,J1,2,Pin_2*%
%TO.N,/IN2*%
X151380000Y-111500000D03*
%TO.P,J1,3,Pin_3*%
%TO.N,/IN3*%
X153920000Y-111500000D03*
%TO.P,J1,4,Pin_4*%
%TO.N,/IN4*%
X156460000Y-111500000D03*
%TO.P,J1,5,Pin_5*%
%TO.N,/EN1*%
X159000000Y-111500000D03*
%TO.P,J1,6,Pin_6*%
%TO.N,/EN2*%
X161540000Y-111500000D03*
%TO.P,J1,7,Pin_7*%
%TO.N,VCC*%
X164080000Y-111500000D03*
%TO.P,J1,8,Pin_8*%
%TO.N,GND*%
X166620000Y-111500000D03*
%TD*%
D12*
%TO.P,C3,1*%
%TO.N,/+V*%
X165000000Y-94000000D03*
%TO.P,C3,2*%
%TO.N,GND*%
X170000000Y-94000000D03*
%TD*%
D10*
%TO.P,J6,1,Pin_1*%
%TO.N,/OUT3*%
X168025000Y-105027500D03*
D11*
%TO.P,J6,2,Pin_2*%
%TO.N,/OUT4*%
X168025000Y-99947500D03*
%TD*%
D13*
%TO.P,J4,1,Pin_1*%
%TO.N,/EN2*%
X146500000Y-81225000D03*
D14*
%TO.P,J4,2,Pin_2*%
%TO.N,VCC*%
X146500000Y-83765000D03*
%TD*%
D10*
%TO.P,J5,1,Pin_1*%
%TO.N,/OUT1*%
X146475000Y-99972500D03*
D11*
%TO.P,J5,2,Pin_2*%
%TO.N,/OUT2*%
X146475000Y-105052500D03*
%TD*%
D16*
%TO.N,VCC*%
X171000000Y-97500000D03*
%TO.N,GND*%
X154500000Y-81500000D03*
%TO.N,/+V*%
X153000000Y-108000000D03*
%TO.N,/IN4*%
X156500000Y-109000000D03*
%TO.N,/IN3*%
X157500000Y-106000000D03*
%TD*%
D17*
%TO.N,VCC*%
X165000000Y-91500000D02*
X165000000Y-89500000D01*
X171000000Y-97500000D02*
X165000000Y-91500000D01*
%TO.N,GND*%
X150500000Y-93535000D02*
X153195000Y-96230000D01*
X154500000Y-81500000D02*
X150500000Y-85500000D01*
X150500000Y-85500000D02*
X150500000Y-93535000D01*
D18*
%TO.N,/+V*%
X163931741Y-83000000D02*
X166000000Y-83000000D01*
X155437000Y-91494741D02*
X163931741Y-83000000D01*
X155437000Y-105563000D02*
X155437000Y-91494741D01*
X153000000Y-108000000D02*
X155437000Y-105563000D01*
D19*
%TO.N,/IN4*%
X156500000Y-109000000D02*
X156500000Y-95465000D01*
X156500000Y-95465000D02*
X160815000Y-91150000D01*
%TO.N,/IN3*%
X157500000Y-106000000D02*
X159650000Y-103850000D01*
X159650000Y-103850000D02*
X160815000Y-103850000D01*
%TD*%
%TA.AperFunction,Conductor*%
%TO.N,GND*%
G36*
X159433834Y-93482915D02*
G01*
X159489767Y-93524787D01*
X159514184Y-93590251D01*
X159514500Y-93599097D01*
X159514500Y-93792351D01*
X159546522Y-93994534D01*
X159609781Y-94189223D01*
X159702715Y-94371613D01*
X159823028Y-94537213D01*
X159967786Y-94681971D01*
X160133385Y-94802284D01*
X160133387Y-94802285D01*
X160133390Y-94802287D01*
X160221574Y-94847219D01*
X160226630Y-94849795D01*
X160277426Y-94897770D01*
X160294221Y-94965591D01*
X160271684Y-95031725D01*
X160226630Y-95070765D01*
X160133644Y-95118143D01*
X160089077Y-95150523D01*
X160089077Y-95150524D01*
X160768554Y-95830000D01*
X160762339Y-95830000D01*
X160660606Y-95857259D01*
X160569394Y-95909920D01*
X160494920Y-95984394D01*
X160442259Y-96075606D01*
X160415000Y-96177339D01*
X160415000Y-96183553D01*
X159735524Y-95504077D01*
X159735523Y-95504077D01*
X159703143Y-95548644D01*
X159610244Y-95730968D01*
X159547009Y-95925582D01*
X159515000Y-96127682D01*
X159515000Y-96332317D01*
X159547009Y-96534417D01*
X159610244Y-96729031D01*
X159703141Y-96911350D01*
X159703147Y-96911359D01*
X159735523Y-96955921D01*
X159735524Y-96955922D01*
X160415000Y-96276446D01*
X160415000Y-96282661D01*
X160442259Y-96384394D01*
X160494920Y-96475606D01*
X160569394Y-96550080D01*
X160660606Y-96602741D01*
X160762339Y-96630000D01*
X160768553Y-96630000D01*
X160089076Y-97309474D01*
X160133650Y-97341859D01*
X160227180Y-97389515D01*
X160277976Y-97437489D01*
X160294771Y-97505310D01*
X160272234Y-97571445D01*
X160227180Y-97610485D01*
X160133644Y-97658143D01*
X160089077Y-97690523D01*
X160089077Y-97690524D01*
X160768554Y-98370000D01*
X160762339Y-98370000D01*
X160660606Y-98397259D01*
X160569394Y-98449920D01*
X160494920Y-98524394D01*
X160442259Y-98615606D01*
X160415000Y-98717339D01*
X160415000Y-98723553D01*
X159735524Y-98044077D01*
X159735523Y-98044077D01*
X159703143Y-98088644D01*
X159610244Y-98270968D01*
X159547009Y-98465582D01*
X159515000Y-98667682D01*
X159515000Y-98872317D01*
X159547009Y-99074417D01*
X159610244Y-99269031D01*
X159703141Y-99451350D01*
X159703147Y-99451359D01*
X159735523Y-99495921D01*
X159735524Y-99495922D01*
X160415000Y-98816446D01*
X160415000Y-98822661D01*
X160442259Y-98924394D01*
X160494920Y-99015606D01*
X160569394Y-99090080D01*
X160660606Y-99142741D01*
X160762339Y-99170000D01*
X160768553Y-99170000D01*
X160089076Y-99849474D01*
X160133652Y-99881861D01*
X160226628Y-99929234D01*
X160277425Y-99977208D01*
X160294220Y-100045029D01*
X160271683Y-100111164D01*
X160226630Y-100150203D01*
X160133388Y-100197713D01*
X159967786Y-100318028D01*
X159823028Y-100462786D01*
X159702715Y-100628386D01*
X159609781Y-100810776D01*
X159546522Y-101005465D01*
X159514500Y-101207648D01*
X159514500Y-101412351D01*
X159546522Y-101614534D01*
X159609781Y-101809223D01*
X159702715Y-101991613D01*
X159823028Y-102157213D01*
X159967786Y-102301971D01*
X160122749Y-102414556D01*
X160133390Y-102422287D01*
X160224840Y-102468883D01*
X160226080Y-102469515D01*
X160276876Y-102517490D01*
X160293671Y-102585311D01*
X160271134Y-102651446D01*
X160226080Y-102690485D01*
X160133386Y-102737715D01*
X159967786Y-102858028D01*
X159823028Y-103002786D01*
X159702715Y-103168385D01*
X159695883Y-103181795D01*
X159647909Y-103232591D01*
X159585398Y-103249500D01*
X159570943Y-103249500D01*
X159418215Y-103290423D01*
X159418214Y-103290423D01*
X159418212Y-103290424D01*
X159418209Y-103290425D01*
X159368096Y-103319359D01*
X159368095Y-103319360D01*
X159324689Y-103344420D01*
X159281285Y-103369479D01*
X159281282Y-103369481D01*
X157485339Y-105165425D01*
X157469111Y-105174285D01*
X157455897Y-105187216D01*
X157425714Y-105197982D01*
X157424016Y-105198910D01*
X157422696Y-105199190D01*
X157421192Y-105199500D01*
X157421158Y-105199500D01*
X157266503Y-105230263D01*
X157261074Y-105232511D01*
X157249538Y-105234890D01*
X157225772Y-105232930D01*
X157202056Y-105235396D01*
X157191591Y-105230111D01*
X157179905Y-105229148D01*
X157160969Y-105214648D01*
X157139687Y-105203902D01*
X157133740Y-105193799D01*
X157124430Y-105186670D01*
X157116340Y-105164237D01*
X157104245Y-105143689D01*
X157101795Y-105123906D01*
X157100727Y-105120944D01*
X157101182Y-105118955D01*
X157100500Y-105113444D01*
X157100500Y-95765097D01*
X157120185Y-95698058D01*
X157136819Y-95677416D01*
X159302819Y-93511416D01*
X159364142Y-93477931D01*
X159433834Y-93482915D01*
G37*
%TD.AperFunction*%
%TA.AperFunction,Conductor*%
G36*
X174442539Y-72520185D02*
G01*
X174488294Y-72572989D01*
X174499500Y-72624500D01*
X174499500Y-115375500D01*
X174479815Y-115442539D01*
X174427011Y-115488294D01*
X174375500Y-115499500D01*
X140624500Y-115499500D01*
X140557461Y-115479815D01*
X140511706Y-115427011D01*
X140500500Y-115375500D01*
X140500500Y-112885258D01*
X141249500Y-112885258D01*
X141249500Y-113114741D01*
X141270715Y-113275876D01*
X141279452Y-113342238D01*
X141338842Y-113563887D01*
X141426650Y-113775876D01*
X141426657Y-113775890D01*
X141541392Y-113974617D01*
X141681081Y-114156661D01*
X141681089Y-114156670D01*
X141843330Y-114318911D01*
X141843338Y-114318918D01*
X142025382Y-114458607D01*
X142025385Y-114458608D01*
X142025388Y-114458611D01*
X142224112Y-114573344D01*
X142224117Y-114573346D01*
X142224123Y-114573349D01*
X142315480Y-114611190D01*
X142436113Y-114661158D01*
X142657762Y-114720548D01*
X142885266Y-114750500D01*
X142885273Y-114750500D01*
X143114727Y-114750500D01*
X143114734Y-114750500D01*
X143342238Y-114720548D01*
X143563887Y-114661158D01*
X143775888Y-114573344D01*
X143974612Y-114458611D01*
X144156661Y-114318919D01*
X144156665Y-114318914D01*
X144156670Y-114318911D01*
X144318911Y-114156670D01*
X144318914Y-114156665D01*
X144318919Y-114156661D01*
X144458611Y-113974612D01*
X144573344Y-113775888D01*
X144661158Y-113563887D01*
X144720548Y-113342238D01*
X144750500Y-113114734D01*
X144750500Y-112885266D01*
X144720548Y-112657762D01*
X144661158Y-112436113D01*
X144573344Y-112224112D01*
X144458611Y-112025388D01*
X144458608Y-112025385D01*
X144458607Y-112025382D01*
X144318918Y-111843338D01*
X144318911Y-111843330D01*
X144156670Y-111681089D01*
X144156661Y-111681081D01*
X143974617Y-111541392D01*
X143775890Y-111426657D01*
X143775876Y-111426650D01*
X143563887Y-111338842D01*
X143342238Y-111279452D01*
X143304215Y-111274446D01*
X143114741Y-111249500D01*
X143114734Y-111249500D01*
X142885266Y-111249500D01*
X142885258Y-111249500D01*
X142668715Y-111278009D01*
X142657762Y-111279452D01*
X142564076Y-111304554D01*
X142436112Y-111338842D01*
X142224123Y-111426650D01*
X142224109Y-111426657D01*
X142025382Y-111541392D01*
X141843338Y-111681081D01*
X141681081Y-111843338D01*
X141541392Y-112025382D01*
X141426657Y-112224109D01*
X141426650Y-112224123D01*
X141354680Y-112397876D01*
X141338842Y-112436113D01*
X141280179Y-112655051D01*
X141279453Y-112657759D01*
X141279451Y-112657770D01*
X141249500Y-112885258D01*
X140500500Y-112885258D01*
X140500500Y-110602135D01*
X147489500Y-110602135D01*
X147489500Y-112397870D01*
X147489501Y-112397876D01*
X147495908Y-112457483D01*
X147546202Y-112592328D01*
X147546206Y-112592335D01*
X147632452Y-112707544D01*
X147632455Y-112707547D01*
X147747664Y-112793793D01*
X147747671Y-112793797D01*
X147882517Y-112844091D01*
X147882516Y-112844091D01*
X147889444Y-112844835D01*
X147942127Y-112850500D01*
X149737872Y-112850499D01*
X149797483Y-112844091D01*
X149932331Y-112793796D01*
X150047546Y-112707546D01*
X150133796Y-112592331D01*
X150182810Y-112460916D01*
X150224681Y-112404984D01*
X150290145Y-112380566D01*
X150358418Y-112395417D01*
X150386673Y-112416569D01*
X150500213Y-112530109D01*
X150672179Y-112655048D01*
X150672181Y-112655049D01*
X150672184Y-112655051D01*
X150861588Y-112751557D01*
X151063757Y-112817246D01*
X151273713Y-112850500D01*
X151273714Y-112850500D01*
X151486286Y-112850500D01*
X151486287Y-112850500D01*
X151696243Y-112817246D01*
X151898412Y-112751557D01*
X152087816Y-112655051D01*
X152142572Y-112615269D01*
X152259786Y-112530109D01*
X152259788Y-112530106D01*
X152259792Y-112530104D01*
X152410104Y-112379792D01*
X152410106Y-112379788D01*
X152410109Y-112379786D01*
X152535048Y-112207820D01*
X152535047Y-112207820D01*
X152535051Y-112207816D01*
X152539514Y-112199054D01*
X152587488Y-112148259D01*
X152655308Y-112131463D01*
X152721444Y-112153999D01*
X152760486Y-112199056D01*
X152764951Y-112207820D01*
X152889890Y-112379786D01*
X153040213Y-112530109D01*
X153212179Y-112655048D01*
X153212181Y-112655049D01*
X153212184Y-112655051D01*
X153401588Y-112751557D01*
X153603757Y-112817246D01*
X153813713Y-112850500D01*
X153813714Y-112850500D01*
X154026286Y-112850500D01*
X154026287Y-112850500D01*
X154236243Y-112817246D01*
X154438412Y-112751557D01*
X154627816Y-112655051D01*
X154682572Y-112615269D01*
X154799786Y-112530109D01*
X154799788Y-112530106D01*
X154799792Y-112530104D01*
X154950104Y-112379792D01*
X154950106Y-112379788D01*
X154950109Y-112379786D01*
X155075048Y-112207820D01*
X155075047Y-112207820D01*
X155075051Y-112207816D01*
X155079514Y-112199054D01*
X155127488Y-112148259D01*
X155195308Y-112131463D01*
X155261444Y-112153999D01*
X155300486Y-112199056D01*
X155304951Y-112207820D01*
X155429890Y-112379786D01*
X155580213Y-112530109D01*
X155752179Y-112655048D01*
X155752181Y-112655049D01*
X155752184Y-112655051D01*
X155941588Y-112751557D01*
X156143757Y-112817246D01*
X156353713Y-112850500D01*
X156353714Y-112850500D01*
X156566286Y-112850500D01*
X156566287Y-112850500D01*
X156776243Y-112817246D01*
X156978412Y-112751557D01*
X157167816Y-112655051D01*
X157222572Y-112615269D01*
X157339786Y-112530109D01*
X157339788Y-112530106D01*
X157339792Y-112530104D01*
X157490104Y-112379792D01*
X157490106Y-112379788D01*
X157490109Y-112379786D01*
X157615048Y-112207820D01*
X157615047Y-112207820D01*
X157615051Y-112207816D01*
X157619514Y-112199054D01*
X157667488Y-112148259D01*
X157735308Y-112131463D01*
X157801444Y-112153999D01*
X157840486Y-112199056D01*
X157844951Y-112207820D01*
X157969890Y-112379786D01*
X158120213Y-112530109D01*
X158292179Y-112655048D01*
X158292181Y-112655049D01*
X158292184Y-112655051D01*
X158481588Y-112751557D01*
X158683757Y-112817246D01*
X158893713Y-112850500D01*
X158893714Y-112850500D01*
X159106286Y-112850500D01*
X159106287Y-112850500D01*
X159316243Y-112817246D01*
X159518412Y-112751557D01*
X159707816Y-112655051D01*
X159762572Y-112615269D01*
X159879786Y-112530109D01*
X159879788Y-112530106D01*
X159879792Y-112530104D01*
X160030104Y-112379792D01*
X160030106Y-112379788D01*
X160030109Y-112379786D01*
X160155048Y-112207820D01*
X160155047Y-112207820D01*
X160155051Y-112207816D01*
X160159514Y-112199054D01*
X160207488Y-112148259D01*
X160275308Y-112131463D01*
X160341444Y-112153999D01*
X160380486Y-112199056D01*
X160384951Y-112207820D01*
X160509890Y-112379786D01*
X160660213Y-112530109D01*
X160832179Y-112655048D01*
X160832181Y-112655049D01*
X160832184Y-112655051D01*
X161021588Y-112751557D01*
X161223757Y-112817246D01*
X161433713Y-112850500D01*
X161433714Y-112850500D01*
X161646286Y-112850500D01*
X161646287Y-112850500D01*
X161856243Y-112817246D01*
X162058412Y-112751557D01*
X162247816Y-112655051D01*
X162302572Y-112615269D01*
X162419786Y-112530109D01*
X162419788Y-112530106D01*
X162419792Y-112530104D01*
X162570104Y-112379792D01*
X162570106Y-112379788D01*
X162570109Y-112379786D01*
X162695048Y-112207820D01*
X162695047Y-112207820D01*
X162695051Y-112207816D01*
X162699514Y-112199054D01*
X162747488Y-112148259D01*
X162815308Y-112131463D01*
X162881444Y-112153999D01*
X162920486Y-112199056D01*
X162924951Y-112207820D01*
X163049890Y-112379786D01*
X163200213Y-112530109D01*
X163372179Y-112655048D01*
X163372181Y-112655049D01*
X163372184Y-112655051D01*
X163561588Y-112751557D01*
X163763757Y-112817246D01*
X163973713Y-112850500D01*
X163973714Y-112850500D01*
X164186286Y-112850500D01*
X164186287Y-112850500D01*
X164396243Y-112817246D01*
X164598412Y-112751557D01*
X164787816Y-112655051D01*
X164842572Y-112615269D01*
X164959786Y-112530109D01*
X164959788Y-112530106D01*
X164959792Y-112530104D01*
X165110104Y-112379792D01*
X165110106Y-112379788D01*
X165110109Y-112379786D01*
X165195890Y-112261717D01*
X165235051Y-112207816D01*
X165239793Y-112198508D01*
X165287763Y-112147711D01*
X165355583Y-112130911D01*
X165421719Y-112153445D01*
X165460763Y-112198500D01*
X165465373Y-112207547D01*
X165504728Y-112261716D01*
X166137037Y-111629408D01*
X166154075Y-111692993D01*
X166219901Y-111807007D01*
X166312993Y-111900099D01*
X166427007Y-111965925D01*
X166490590Y-111982962D01*
X165858282Y-112615269D01*
X165858282Y-112615270D01*
X165912449Y-112654624D01*
X166101782Y-112751095D01*
X166303870Y-112816757D01*
X166513754Y-112850000D01*
X166726246Y-112850000D01*
X166936127Y-112816757D01*
X166936130Y-112816757D01*
X167138217Y-112751095D01*
X167327554Y-112654622D01*
X167381716Y-112615270D01*
X167381717Y-112615270D01*
X167151705Y-112385258D01*
X170249500Y-112385258D01*
X170249500Y-112614741D01*
X170274446Y-112804215D01*
X170279452Y-112842238D01*
X170290983Y-112885272D01*
X170338842Y-113063887D01*
X170426650Y-113275876D01*
X170426657Y-113275890D01*
X170541392Y-113474617D01*
X170681081Y-113656661D01*
X170681089Y-113656670D01*
X170843330Y-113818911D01*
X170843338Y-113818918D01*
X171025382Y-113958607D01*
X171025385Y-113958608D01*
X171025388Y-113958611D01*
X171224112Y-114073344D01*
X171224117Y-114073346D01*
X171224123Y-114073349D01*
X171315480Y-114111190D01*
X171436113Y-114161158D01*
X171657762Y-114220548D01*
X171885266Y-114250500D01*
X171885273Y-114250500D01*
X172114727Y-114250500D01*
X172114734Y-114250500D01*
X172342238Y-114220548D01*
X172563887Y-114161158D01*
X172775888Y-114073344D01*
X172974612Y-113958611D01*
X173156661Y-113818919D01*
X173156665Y-113818914D01*
X173156670Y-113818911D01*
X173318911Y-113656670D01*
X173318914Y-113656665D01*
X173318919Y-113656661D01*
X173458611Y-113474612D01*
X173573344Y-113275888D01*
X173661158Y-113063887D01*
X173720548Y-112842238D01*
X173750500Y-112614734D01*
X173750500Y-112385266D01*
X173720548Y-112157762D01*
X173661158Y-111936113D01*
X173573344Y-111724112D01*
X173458611Y-111525388D01*
X173458608Y-111525385D01*
X173458607Y-111525382D01*
X173318918Y-111343338D01*
X173318911Y-111343330D01*
X173156670Y-111181089D01*
X173156661Y-111181081D01*
X172974617Y-111041392D01*
X172969346Y-111038349D01*
X172775888Y-110926656D01*
X172775876Y-110926650D01*
X172563887Y-110838842D01*
X172342238Y-110779452D01*
X172304215Y-110774446D01*
X172114741Y-110749500D01*
X172114734Y-110749500D01*
X171885266Y-110749500D01*
X171885258Y-110749500D01*
X171668715Y-110778009D01*
X171657762Y-110779452D01*
X171609256Y-110792449D01*
X171436112Y-110838842D01*
X171224123Y-110926650D01*
X171224109Y-110926657D01*
X171025382Y-111041392D01*
X170843338Y-111181081D01*
X170681081Y-111343338D01*
X170541392Y-111525382D01*
X170426657Y-111724109D01*
X170426650Y-111724123D01*
X170338842Y-111936112D01*
X170279453Y-112157759D01*
X170279451Y-112157770D01*
X170249500Y-112385258D01*
X167151705Y-112385258D01*
X166749408Y-111982962D01*
X166812993Y-111965925D01*
X166927007Y-111900099D01*
X167020099Y-111807007D01*
X167085925Y-111692993D01*
X167102962Y-111629408D01*
X167735270Y-112261717D01*
X167735270Y-112261716D01*
X167774622Y-112207554D01*
X167871095Y-112018217D01*
X167936757Y-111816130D01*
X167936757Y-111816127D01*
X167970000Y-111606246D01*
X167970000Y-111393753D01*
X167936757Y-111183872D01*
X167936757Y-111183869D01*
X167871095Y-110981782D01*
X167774624Y-110792449D01*
X167735270Y-110738282D01*
X167735269Y-110738282D01*
X167102962Y-111370590D01*
X167085925Y-111307007D01*
X167020099Y-111192993D01*
X166927007Y-111099901D01*
X166812993Y-111034075D01*
X166749409Y-111017037D01*
X167381716Y-110384728D01*
X167327550Y-110345375D01*
X167138217Y-110248904D01*
X166936129Y-110183242D01*
X166726246Y-110150000D01*
X166513754Y-110150000D01*
X166303872Y-110183242D01*
X166303869Y-110183242D01*
X166101782Y-110248904D01*
X165912439Y-110345380D01*
X165858282Y-110384727D01*
X165858282Y-110384728D01*
X166490591Y-111017037D01*
X166427007Y-111034075D01*
X166312993Y-111099901D01*
X166219901Y-111192993D01*
X166154075Y-111307007D01*
X166137037Y-111370591D01*
X165504728Y-110738282D01*
X165504727Y-110738282D01*
X165465380Y-110792440D01*
X165465376Y-110792446D01*
X165460760Y-110801505D01*
X165412781Y-110852297D01*
X165344959Y-110869087D01*
X165278826Y-110846543D01*
X165239794Y-110801493D01*
X165235051Y-110792184D01*
X165235049Y-110792181D01*
X165235048Y-110792179D01*
X165110109Y-110620213D01*
X164959786Y-110469890D01*
X164787820Y-110344951D01*
X164598414Y-110248444D01*
X164598413Y-110248443D01*
X164598412Y-110248443D01*
X164396243Y-110182754D01*
X164396241Y-110182753D01*
X164396240Y-110182753D01*
X164234957Y-110157208D01*
X164186287Y-110149500D01*
X163973713Y-110149500D01*
X163925042Y-110157208D01*
X163763760Y-110182753D01*
X163561585Y-110248444D01*
X163372179Y-110344951D01*
X163200213Y-110469890D01*
X163049890Y-110620213D01*
X162924949Y-110792182D01*
X162920484Y-110800946D01*
X162872509Y-110851742D01*
X162804688Y-110868536D01*
X162738553Y-110845998D01*
X162699516Y-110800946D01*
X162695050Y-110792182D01*
X162570109Y-110620213D01*
X162419786Y-110469890D01*
X162247820Y-110344951D01*
X162058414Y-110248444D01*
X162058413Y-110248443D01*
X162058412Y-110248443D01*
X161856243Y-110182754D01*
X161856241Y-110182753D01*
X161856240Y-110182753D01*
X161694957Y-110157208D01*
X161646287Y-110149500D01*
X161433713Y-110149500D01*
X161385042Y-110157208D01*
X161223760Y-110182753D01*
X161021585Y-110248444D01*
X160832179Y-110344951D01*
X160660213Y-110469890D01*
X160509890Y-110620213D01*
X160384949Y-110792182D01*
X160380484Y-110800946D01*
X160332509Y-110851742D01*
X160264688Y-110868536D01*
X160198553Y-110845998D01*
X160159516Y-110800946D01*
X160155050Y-110792182D01*
X160030109Y-110620213D01*
X159879786Y-110469890D01*
X159707820Y-110344951D01*
X159518414Y-110248444D01*
X159518413Y-110248443D01*
X159518412Y-110248443D01*
X159316243Y-110182754D01*
X159316241Y-110182753D01*
X159316240Y-110182753D01*
X159154957Y-110157208D01*
X159106287Y-110149500D01*
X158893713Y-110149500D01*
X158845042Y-110157208D01*
X158683760Y-110182753D01*
X158481585Y-110248444D01*
X158292179Y-110344951D01*
X158120213Y-110469890D01*
X157969890Y-110620213D01*
X157844949Y-110792182D01*
X157840484Y-110800946D01*
X157792509Y-110851742D01*
X157724688Y-110868536D01*
X157658553Y-110845998D01*
X157619516Y-110800946D01*
X157615050Y-110792182D01*
X157490109Y-110620213D01*
X157339786Y-110469890D01*
X157167820Y-110344951D01*
X156978414Y-110248444D01*
X156978413Y-110248443D01*
X156978412Y-110248443D01*
X156776243Y-110182754D01*
X156776241Y-110182753D01*
X156776240Y-110182753D01*
X156614957Y-110157208D01*
X156566287Y-110149500D01*
X156353713Y-110149500D01*
X156305042Y-110157208D01*
X156143760Y-110182753D01*
X155941585Y-110248444D01*
X155752179Y-110344951D01*
X155580213Y-110469890D01*
X155429890Y-110620213D01*
X155304949Y-110792182D01*
X155300484Y-110800946D01*
X155252509Y-110851742D01*
X155184688Y-110868536D01*
X155118553Y-110845998D01*
X155079516Y-110800946D01*
X155075050Y-110792182D01*
X154950109Y-110620213D01*
X154799786Y-110469890D01*
X154627820Y-110344951D01*
X154438414Y-110248444D01*
X154438413Y-110248443D01*
X154438412Y-110248443D01*
X154236243Y-110182754D01*
X154236241Y-110182753D01*
X154236240Y-110182753D01*
X154074957Y-110157208D01*
X154026287Y-110149500D01*
X153813713Y-110149500D01*
X153765042Y-110157208D01*
X153603760Y-110182753D01*
X153401585Y-110248444D01*
X153212179Y-110344951D01*
X153040213Y-110469890D01*
X152889890Y-110620213D01*
X152764949Y-110792182D01*
X152760484Y-110800946D01*
X152712509Y-110851742D01*
X152644688Y-110868536D01*
X152578553Y-110845998D01*
X152539516Y-110800946D01*
X152535050Y-110792182D01*
X152410109Y-110620213D01*
X152259786Y-110469890D01*
X152087820Y-110344951D01*
X151898414Y-110248444D01*
X151898413Y-110248443D01*
X151898412Y-110248443D01*
X151696243Y-110182754D01*
X151696241Y-110182753D01*
X151696240Y-110182753D01*
X151534957Y-110157208D01*
X151486287Y-110149500D01*
X151273713Y-110149500D01*
X151225042Y-110157208D01*
X151063760Y-110182753D01*
X150861585Y-110248444D01*
X150672179Y-110344951D01*
X150500215Y-110469889D01*
X150386673Y-110583431D01*
X150325350Y-110616915D01*
X150255658Y-110611931D01*
X150199725Y-110570059D01*
X150182810Y-110539082D01*
X150133797Y-110407671D01*
X150133793Y-110407664D01*
X150047547Y-110292455D01*
X150047544Y-110292452D01*
X149932335Y-110206206D01*
X149932328Y-110206202D01*
X149797482Y-110155908D01*
X149797483Y-110155908D01*
X149737883Y-110149501D01*
X149737881Y-110149500D01*
X149737873Y-110149500D01*
X149737864Y-110149500D01*
X147942129Y-110149500D01*
X147942123Y-110149501D01*
X147882516Y-110155908D01*
X147747671Y-110206202D01*
X147747664Y-110206206D01*
X147632455Y-110292452D01*
X147632452Y-110292455D01*
X147546206Y-110407664D01*
X147546202Y-110407671D01*
X147495908Y-110542517D01*
X147489501Y-110602116D01*
X147489500Y-110602135D01*
X140500500Y-110602135D01*
X140500500Y-107900639D01*
X151737500Y-107900639D01*
X151737500Y-108099360D01*
X151768587Y-108295637D01*
X151829993Y-108484629D01*
X151829994Y-108484632D01*
X151899387Y-108620821D01*
X151920213Y-108661694D01*
X152037019Y-108822463D01*
X152177537Y-108962981D01*
X152338306Y-109079787D01*
X152425149Y-109124035D01*
X152515367Y-109170005D01*
X152515370Y-109170006D01*
X152609866Y-109200709D01*
X152704364Y-109231413D01*
X152900639Y-109262500D01*
X152900640Y-109262500D01*
X153099360Y-109262500D01*
X153099361Y-109262500D01*
X153295636Y-109231413D01*
X153484632Y-109170005D01*
X153661694Y-109079787D01*
X153822463Y-108962981D01*
X155687819Y-107097625D01*
X155749142Y-107064140D01*
X155818834Y-107069124D01*
X155874767Y-107110996D01*
X155899184Y-107176460D01*
X155899500Y-107185306D01*
X155899500Y-108420234D01*
X155879815Y-108487273D01*
X155878602Y-108489125D01*
X155790609Y-108620814D01*
X155790602Y-108620827D01*
X155730264Y-108766498D01*
X155730261Y-108766510D01*
X155699500Y-108921153D01*
X155699500Y-109078846D01*
X155730261Y-109233489D01*
X155730264Y-109233501D01*
X155790602Y-109379172D01*
X155790609Y-109379185D01*
X155878210Y-109510288D01*
X155878213Y-109510292D01*
X155989707Y-109621786D01*
X155989711Y-109621789D01*
X156120814Y-109709390D01*
X156120827Y-109709397D01*
X156266498Y-109769735D01*
X156266503Y-109769737D01*
X156421153Y-109800499D01*
X156421156Y-109800500D01*
X156421158Y-109800500D01*
X156578844Y-109800500D01*
X156578845Y-109800499D01*
X156733497Y-109769737D01*
X156879179Y-109709394D01*
X157010289Y-109621789D01*
X157121789Y-109510289D01*
X157209394Y-109379179D01*
X157269737Y-109233497D01*
X157300500Y-109078842D01*
X157300500Y-108921158D01*
X157300500Y-108921155D01*
X157300499Y-108921153D01*
X157269737Y-108766503D01*
X157226324Y-108661694D01*
X157209397Y-108620827D01*
X157209390Y-108620814D01*
X157121398Y-108489125D01*
X157100520Y-108422447D01*
X157100500Y-108420234D01*
X157100500Y-106886555D01*
X157120185Y-106819516D01*
X157172989Y-106773761D01*
X157242147Y-106763817D01*
X157260411Y-106768840D01*
X157260676Y-106767969D01*
X157266492Y-106769732D01*
X157266503Y-106769737D01*
X157421153Y-106800499D01*
X157421156Y-106800500D01*
X157421158Y-106800500D01*
X157578844Y-106800500D01*
X157578845Y-106800499D01*
X157733497Y-106769737D01*
X157879179Y-106709394D01*
X158010289Y-106621789D01*
X158121789Y-106510289D01*
X158209394Y-106379179D01*
X158269737Y-106233497D01*
X158294306Y-106109982D01*
X158300638Y-106078150D01*
X158333023Y-106016239D01*
X158334519Y-106014715D01*
X159649845Y-104699388D01*
X159711166Y-104665905D01*
X159780858Y-104670889D01*
X159825205Y-104699390D01*
X159967786Y-104841971D01*
X160097718Y-104936370D01*
X160133390Y-104962287D01*
X160224840Y-105008883D01*
X160226080Y-105009515D01*
X160276876Y-105057490D01*
X160293671Y-105125311D01*
X160271134Y-105191446D01*
X160226080Y-105230485D01*
X160133386Y-105277715D01*
X159967786Y-105398028D01*
X159823028Y-105542786D01*
X159702715Y-105708386D01*
X159609781Y-105890776D01*
X159546522Y-106085465D01*
X159521281Y-106244835D01*
X159514500Y-106287648D01*
X159514500Y-106492352D01*
X159518878Y-106519995D01*
X159546522Y-106694534D01*
X159609781Y-106889223D01*
X159673691Y-107014653D01*
X159701446Y-107069124D01*
X159702715Y-107071613D01*
X159823028Y-107237213D01*
X159967786Y-107381971D01*
X160122749Y-107494556D01*
X160133390Y-107502287D01*
X160249607Y-107561503D01*
X160315776Y-107595218D01*
X160315778Y-107595218D01*
X160315781Y-107595220D01*
X160420137Y-107629127D01*
X160510465Y-107658477D01*
X160611557Y-107674488D01*
X160712648Y-107690500D01*
X160712649Y-107690500D01*
X160917351Y-107690500D01*
X160917352Y-107690500D01*
X161119534Y-107658477D01*
X161314219Y-107595220D01*
X161496610Y-107502287D01*
X161589590Y-107434732D01*
X161662213Y-107381971D01*
X161662215Y-107381968D01*
X161662219Y-107381966D01*
X161806966Y-107237219D01*
X161806968Y-107237215D01*
X161806971Y-107237213D01*
X161859732Y-107164590D01*
X161927287Y-107071610D01*
X162020220Y-106889219D01*
X162083477Y-106694534D01*
X162115500Y-106492352D01*
X162115500Y-106287648D01*
X162083477Y-106085466D01*
X162071542Y-106048735D01*
X162020218Y-105890776D01*
X161986503Y-105824607D01*
X161927287Y-105708390D01*
X161919556Y-105697749D01*
X161806971Y-105542786D01*
X161662213Y-105398028D01*
X161496614Y-105277715D01*
X161490006Y-105274348D01*
X161403917Y-105230483D01*
X161353123Y-105182511D01*
X161336328Y-105114690D01*
X161358865Y-105048555D01*
X161403917Y-105009516D01*
X161496610Y-104962287D01*
X161532282Y-104936370D01*
X161662213Y-104841971D01*
X161662215Y-104841968D01*
X161662219Y-104841966D01*
X161806966Y-104697219D01*
X161806968Y-104697215D01*
X161806971Y-104697213D01*
X161859732Y-104624590D01*
X161927287Y-104531610D01*
X162020220Y-104349219D01*
X162083477Y-104154534D01*
X162107219Y-104004635D01*
X166549500Y-104004635D01*
X166549500Y-106050370D01*
X166549501Y-106050376D01*
X166555908Y-106109983D01*
X166606202Y-106244828D01*
X166606206Y-106244835D01*
X166692452Y-106360044D01*
X166692455Y-106360047D01*
X166807664Y-106446293D01*
X166807671Y-106446297D01*
X166942517Y-106496591D01*
X166942516Y-106496591D01*
X166949444Y-106497335D01*
X167002127Y-106503000D01*
X169047872Y-106502999D01*
X169107483Y-106496591D01*
X169242331Y-106446296D01*
X169357546Y-106360046D01*
X169443796Y-106244831D01*
X169494091Y-106109983D01*
X169500500Y-106050373D01*
X169500499Y-104004628D01*
X169495299Y-103956257D01*
X169494091Y-103945016D01*
X169443797Y-103810171D01*
X169443793Y-103810164D01*
X169357547Y-103694955D01*
X169357544Y-103694952D01*
X169242335Y-103608706D01*
X169242328Y-103608702D01*
X169107482Y-103558408D01*
X169107483Y-103558408D01*
X169047883Y-103552001D01*
X169047881Y-103552000D01*
X169047873Y-103552000D01*
X169047864Y-103552000D01*
X167002129Y-103552000D01*
X167002123Y-103552001D01*
X166942516Y-103558408D01*
X166807671Y-103608702D01*
X166807664Y-103608706D01*
X166692455Y-103694952D01*
X166692452Y-103694955D01*
X166606206Y-103810164D01*
X166606202Y-103810171D01*
X166555908Y-103945017D01*
X166549501Y-104004616D01*
X166549501Y-104004623D01*
X166549500Y-104004635D01*
X162107219Y-104004635D01*
X162115500Y-103952352D01*
X162115500Y-103747648D01*
X162094226Y-103613331D01*
X162083477Y-103545465D01*
X162026296Y-103369481D01*
X162020220Y-103350781D01*
X162020218Y-103350778D01*
X162020218Y-103350776D01*
X161986503Y-103284607D01*
X161927287Y-103168390D01*
X161919556Y-103157749D01*
X161806971Y-103002786D01*
X161662213Y-102858028D01*
X161496614Y-102737715D01*
X161474803Y-102726602D01*
X161403917Y-102690483D01*
X161353123Y-102642511D01*
X161336328Y-102574690D01*
X161358865Y-102508555D01*
X161403917Y-102469516D01*
X161496610Y-102422287D01*
X161629932Y-102325424D01*
X161662213Y-102301971D01*
X161662215Y-102301968D01*
X161662219Y-102301966D01*
X161806966Y-102157219D01*
X161806968Y-102157215D01*
X161806971Y-102157213D01*
X161859732Y-102084590D01*
X161927287Y-101991610D01*
X162020220Y-101809219D01*
X162083477Y-101614534D01*
X162115500Y-101412352D01*
X162115500Y-101207648D01*
X162112678Y-101189828D01*
X162083477Y-101005465D01*
X162020218Y-100810776D01*
X161974388Y-100720831D01*
X161927287Y-100628390D01*
X161919556Y-100617749D01*
X161806971Y-100462786D01*
X161662213Y-100318028D01*
X161496611Y-100197713D01*
X161403369Y-100150203D01*
X161352574Y-100102229D01*
X161335779Y-100034407D01*
X161358317Y-99968273D01*
X161403371Y-99929234D01*
X161496346Y-99881861D01*
X161496347Y-99881861D01*
X161540921Y-99849474D01*
X161540921Y-99849473D01*
X161522818Y-99831370D01*
X166549500Y-99831370D01*
X166549500Y-100063629D01*
X166585831Y-100293014D01*
X166657601Y-100513900D01*
X166763039Y-100720831D01*
X166899551Y-100908724D01*
X167063776Y-101072949D01*
X167251669Y-101209461D01*
X167349436Y-101259276D01*
X167458599Y-101314898D01*
X167458601Y-101314898D01*
X167458604Y-101314900D01*
X167679486Y-101386669D01*
X167797668Y-101405386D01*
X167908871Y-101423000D01*
X167908876Y-101423000D01*
X168141129Y-101423000D01*
X168242502Y-101406943D01*
X168370514Y-101386669D01*
X168591396Y-101314900D01*
X168798331Y-101209461D01*
X168986224Y-101072949D01*
X169150449Y-100908724D01*
X169286961Y-100720831D01*
X169392400Y-100513896D01*
X169464169Y-100293014D01*
X169487607Y-100145031D01*
X169500500Y-100063629D01*
X169500500Y-99831370D01*
X169481232Y-99709722D01*
X169464169Y-99601986D01*
X169392400Y-99381104D01*
X169392398Y-99381101D01*
X169392398Y-99381099D01*
X169286960Y-99174168D01*
X169250186Y-99123553D01*
X169150449Y-98986276D01*
X168986224Y-98822051D01*
X168798331Y-98685539D01*
X168763285Y-98667682D01*
X168591400Y-98580101D01*
X168370514Y-98508331D01*
X168141129Y-98472000D01*
X168141124Y-98472000D01*
X167908876Y-98472000D01*
X167908871Y-98472000D01*
X167679485Y-98508331D01*
X167458599Y-98580101D01*
X167251668Y-98685539D01*
X167063773Y-98822053D01*
X166899553Y-98986273D01*
X166763039Y-99174168D01*
X166657601Y-99381099D01*
X166585831Y-99601985D01*
X166549500Y-99831370D01*
X161522818Y-99831370D01*
X160861447Y-99170000D01*
X160867661Y-99170000D01*
X160969394Y-99142741D01*
X161060606Y-99090080D01*
X161135080Y-99015606D01*
X161187741Y-98924394D01*
X161215000Y-98822661D01*
X161215000Y-98816447D01*
X161894474Y-99495921D01*
X161926859Y-99451349D01*
X162019755Y-99269031D01*
X162082990Y-99074417D01*
X162115000Y-98872317D01*
X162115000Y-98667682D01*
X162082990Y-98465582D01*
X162019755Y-98270968D01*
X161926859Y-98088650D01*
X161894474Y-98044077D01*
X161894474Y-98044076D01*
X161215000Y-98723551D01*
X161215000Y-98717339D01*
X161187741Y-98615606D01*
X161135080Y-98524394D01*
X161060606Y-98449920D01*
X160969394Y-98397259D01*
X160867661Y-98370000D01*
X160861446Y-98370000D01*
X161540922Y-97690524D01*
X161540921Y-97690523D01*
X161496359Y-97658147D01*
X161496350Y-97658141D01*
X161402819Y-97610485D01*
X161352023Y-97562511D01*
X161335228Y-97494690D01*
X161357765Y-97428555D01*
X161402820Y-97389515D01*
X161496346Y-97341861D01*
X161496347Y-97341861D01*
X161540921Y-97309474D01*
X160861447Y-96630000D01*
X160867661Y-96630000D01*
X160969394Y-96602741D01*
X161060606Y-96550080D01*
X161135080Y-96475606D01*
X161187741Y-96384394D01*
X161215000Y-96282661D01*
X161215000Y-96276447D01*
X161894474Y-96955921D01*
X161926859Y-96911349D01*
X162019755Y-96729031D01*
X162082990Y-96534417D01*
X162115000Y-96332317D01*
X162115000Y-96127682D01*
X162082990Y-95925582D01*
X162019755Y-95730968D01*
X161926859Y-95548650D01*
X161894474Y-95504077D01*
X161894474Y-95504076D01*
X161215000Y-96183551D01*
X161215000Y-96177339D01*
X161187741Y-96075606D01*
X161135080Y-95984394D01*
X161060606Y-95909920D01*
X160969394Y-95857259D01*
X160867661Y-95830000D01*
X160861446Y-95830000D01*
X161540922Y-95150524D01*
X161540921Y-95150523D01*
X161496359Y-95118147D01*
X161496350Y-95118141D01*
X161403369Y-95070765D01*
X161352573Y-95022790D01*
X161335778Y-94954969D01*
X161358315Y-94888835D01*
X161403370Y-94849795D01*
X161408426Y-94847219D01*
X161496610Y-94802287D01*
X161546144Y-94766298D01*
X161662213Y-94681971D01*
X161662215Y-94681968D01*
X161662219Y-94681966D01*
X161806966Y-94537219D01*
X161806968Y-94537215D01*
X161806971Y-94537213D01*
X161894844Y-94416264D01*
X161927287Y-94371610D01*
X162020220Y-94189219D01*
X162083477Y-93994534D01*
X162115500Y-93792352D01*
X162115500Y-93587648D01*
X162083477Y-93385466D01*
X162020220Y-93190781D01*
X162020218Y-93190778D01*
X162020218Y-93190776D01*
X161986503Y-93124607D01*
X161927287Y-93008390D01*
X161919556Y-92997749D01*
X161806971Y-92842786D01*
X161662213Y-92698028D01*
X161496614Y-92577715D01*
X161474803Y-92566602D01*
X161403917Y-92530483D01*
X161353123Y-92482511D01*
X161336328Y-92414690D01*
X161358865Y-92348555D01*
X161403917Y-92309516D01*
X161496610Y-92262287D01*
X161549638Y-92223760D01*
X161662213Y-92141971D01*
X161662215Y-92141968D01*
X161662219Y-92141966D01*
X161806966Y-91997219D01*
X161806968Y-91997215D01*
X161806971Y-91997213D01*
X161908555Y-91857392D01*
X161927287Y-91831610D01*
X162020220Y-91649219D01*
X162083477Y-91454534D01*
X162115500Y-91252352D01*
X162115500Y-91047648D01*
X162091778Y-90897873D01*
X162083477Y-90845465D01*
X162020218Y-90650776D01*
X161959576Y-90531761D01*
X161927287Y-90468390D01*
X161907737Y-90441481D01*
X161806971Y-90302786D01*
X161662213Y-90158028D01*
X161496614Y-90037715D01*
X161490006Y-90034348D01*
X161403917Y-89990483D01*
X161353123Y-89942511D01*
X161336328Y-89874690D01*
X161358865Y-89808555D01*
X161403917Y-89769516D01*
X161496610Y-89722287D01*
X161517770Y-89706913D01*
X161662213Y-89601971D01*
X161662215Y-89601968D01*
X161662219Y-89601966D01*
X161806966Y-89457219D01*
X161850247Y-89397648D01*
X163699500Y-89397648D01*
X163699500Y-89602351D01*
X163731522Y-89804534D01*
X163794781Y-89999223D01*
X163858691Y-90124653D01*
X163887585Y-90181359D01*
X163887715Y-90181613D01*
X164008028Y-90347213D01*
X164008034Y-90347219D01*
X164152781Y-90491966D01*
X164194384Y-90522192D01*
X164237050Y-90577520D01*
X164245500Y-90622510D01*
X164245500Y-91420552D01*
X164245499Y-91420578D01*
X164245499Y-91574314D01*
X164268223Y-91688551D01*
X164269684Y-91695894D01*
X164274495Y-91720080D01*
X164292216Y-91762861D01*
X164294017Y-91767209D01*
X164294019Y-91767215D01*
X164331366Y-91857381D01*
X164331372Y-91857392D01*
X164413942Y-91980968D01*
X164413943Y-91980969D01*
X164928283Y-92495308D01*
X164961768Y-92556631D01*
X164956784Y-92626322D01*
X164914913Y-92682256D01*
X164860001Y-92705462D01*
X164695464Y-92731523D01*
X164500776Y-92794781D01*
X164318386Y-92887715D01*
X164152786Y-93008028D01*
X164008028Y-93152786D01*
X163887715Y-93318386D01*
X163794781Y-93500776D01*
X163731522Y-93695465D01*
X163699500Y-93897648D01*
X163699500Y-94102351D01*
X163731522Y-94304534D01*
X163794781Y-94499223D01*
X163887715Y-94681613D01*
X164008028Y-94847213D01*
X164152786Y-94991971D01*
X164261239Y-95070765D01*
X164318390Y-95112287D01*
X164434607Y-95171503D01*
X164500776Y-95205218D01*
X164500778Y-95205218D01*
X164500781Y-95205220D01*
X164605137Y-95239127D01*
X164695465Y-95268477D01*
X164796557Y-95284488D01*
X164897648Y-95300500D01*
X164897649Y-95300500D01*
X165102351Y-95300500D01*
X165102352Y-95300500D01*
X165304534Y-95268477D01*
X165499219Y-95205220D01*
X165681610Y-95112287D01*
X165814567Y-95015689D01*
X165847213Y-94991971D01*
X165847215Y-94991968D01*
X165847219Y-94991966D01*
X165991966Y-94847219D01*
X165991968Y-94847215D01*
X165991971Y-94847213D01*
X166063043Y-94749389D01*
X166112287Y-94681610D01*
X166205220Y-94499219D01*
X166268477Y-94304534D01*
X166294537Y-94139998D01*
X166324466Y-94076864D01*
X166383778Y-94039933D01*
X166453640Y-94040931D01*
X166504691Y-94071716D01*
X170257926Y-97824950D01*
X170284805Y-97865176D01*
X170290604Y-97879175D01*
X170290607Y-97879181D01*
X170378207Y-98010284D01*
X170378213Y-98010292D01*
X170489707Y-98121786D01*
X170489711Y-98121789D01*
X170620814Y-98209390D01*
X170620827Y-98209397D01*
X170766498Y-98269735D01*
X170766503Y-98269737D01*
X170921153Y-98300499D01*
X170921156Y-98300500D01*
X170921158Y-98300500D01*
X171078844Y-98300500D01*
X171078845Y-98300499D01*
X171233497Y-98269737D01*
X171379179Y-98209394D01*
X171510289Y-98121789D01*
X171621789Y-98010289D01*
X171709394Y-97879179D01*
X171769737Y-97733497D01*
X171800500Y-97578842D01*
X171800500Y-97421158D01*
X171800500Y-97421155D01*
X171800499Y-97421153D01*
X171784726Y-97341859D01*
X171769737Y-97266503D01*
X171760750Y-97244806D01*
X171709397Y-97120827D01*
X171709390Y-97120814D01*
X171621789Y-96989711D01*
X171621786Y-96989707D01*
X171510292Y-96878213D01*
X171510284Y-96878207D01*
X171379181Y-96790607D01*
X171379175Y-96790604D01*
X171365176Y-96784805D01*
X171324950Y-96757926D01*
X170071278Y-95504254D01*
X170037793Y-95442931D01*
X170042777Y-95373239D01*
X170084649Y-95317306D01*
X170139562Y-95294100D01*
X170304416Y-95267990D01*
X170304417Y-95267990D01*
X170499031Y-95204755D01*
X170681349Y-95111859D01*
X170725921Y-95079474D01*
X170046446Y-94400000D01*
X170052661Y-94400000D01*
X170154394Y-94372741D01*
X170245606Y-94320080D01*
X170320080Y-94245606D01*
X170372741Y-94154394D01*
X170400000Y-94052661D01*
X170400000Y-94046448D01*
X171079474Y-94725922D01*
X171079474Y-94725921D01*
X171111859Y-94681349D01*
X171204755Y-94499031D01*
X171267990Y-94304417D01*
X171300000Y-94102317D01*
X171300000Y-93897682D01*
X171267990Y-93695582D01*
X171204755Y-93500968D01*
X171111859Y-93318650D01*
X171079474Y-93274077D01*
X171079474Y-93274076D01*
X170400000Y-93953551D01*
X170400000Y-93947339D01*
X170372741Y-93845606D01*
X170320080Y-93754394D01*
X170245606Y-93679920D01*
X170154394Y-93627259D01*
X170052661Y-93600000D01*
X170046446Y-93600000D01*
X170725922Y-92920524D01*
X170725921Y-92920523D01*
X170681359Y-92888147D01*
X170681350Y-92888141D01*
X170499031Y-92795244D01*
X170304417Y-92732009D01*
X170102317Y-92700000D01*
X169897683Y-92700000D01*
X169695582Y-92732009D01*
X169500968Y-92795244D01*
X169318644Y-92888143D01*
X169274077Y-92920523D01*
X169274077Y-92920524D01*
X169953554Y-93600000D01*
X169947339Y-93600000D01*
X169845606Y-93627259D01*
X169754394Y-93679920D01*
X169679920Y-93754394D01*
X169627259Y-93845606D01*
X169600000Y-93947339D01*
X169600000Y-93953553D01*
X168920524Y-93274077D01*
X168920523Y-93274077D01*
X168888143Y-93318644D01*
X168795244Y-93500968D01*
X168732009Y-93695582D01*
X168705899Y-93860437D01*
X168675970Y-93923572D01*
X168616658Y-93960503D01*
X168546795Y-93959505D01*
X168495745Y-93928720D01*
X165790819Y-91223794D01*
X165757334Y-91162471D01*
X165754500Y-91136113D01*
X165754500Y-90622510D01*
X165764223Y-90589394D01*
X165774065Y-90555656D01*
X165774160Y-90555554D01*
X165774185Y-90555471D01*
X165797131Y-90528942D01*
X165801223Y-90525383D01*
X165847219Y-90491966D01*
X165991966Y-90347219D01*
X165991968Y-90347215D01*
X165991971Y-90347213D01*
X166044732Y-90274590D01*
X166112287Y-90181610D01*
X166205220Y-89999219D01*
X166268477Y-89804534D01*
X166300500Y-89602352D01*
X166300500Y-89397682D01*
X168700000Y-89397682D01*
X168700000Y-89602317D01*
X168732009Y-89804417D01*
X168795244Y-89999031D01*
X168888141Y-90181350D01*
X168888147Y-90181359D01*
X168920523Y-90225921D01*
X168920524Y-90225922D01*
X169600000Y-89546446D01*
X169600000Y-89552661D01*
X169627259Y-89654394D01*
X169679920Y-89745606D01*
X169754394Y-89820080D01*
X169845606Y-89872741D01*
X169947339Y-89900000D01*
X169953553Y-89900000D01*
X169274076Y-90579474D01*
X169318650Y-90611859D01*
X169500968Y-90704755D01*
X169695582Y-90767990D01*
X169897683Y-90800000D01*
X170102317Y-90800000D01*
X170304417Y-90767990D01*
X170499031Y-90704755D01*
X170681349Y-90611859D01*
X170725921Y-90579474D01*
X170046447Y-89900000D01*
X170052661Y-89900000D01*
X170154394Y-89872741D01*
X170245606Y-89820080D01*
X170320080Y-89745606D01*
X170372741Y-89654394D01*
X170400000Y-89552661D01*
X170400000Y-89546448D01*
X171079474Y-90225922D01*
X171079474Y-90225921D01*
X171111859Y-90181349D01*
X171204755Y-89999031D01*
X171267990Y-89804417D01*
X171300000Y-89602317D01*
X171300000Y-89397682D01*
X171267990Y-89195582D01*
X171204755Y-89000968D01*
X171111859Y-88818650D01*
X171079474Y-88774077D01*
X171079474Y-88774076D01*
X170400000Y-89453551D01*
X170400000Y-89447339D01*
X170372741Y-89345606D01*
X170320080Y-89254394D01*
X170245606Y-89179920D01*
X170154394Y-89127259D01*
X170052661Y-89100000D01*
X170046446Y-89100000D01*
X170725922Y-88420524D01*
X170725921Y-88420523D01*
X170681359Y-88388147D01*
X170681350Y-88388141D01*
X170499031Y-88295244D01*
X170304417Y-88232009D01*
X170102317Y-88200000D01*
X169897683Y-88200000D01*
X169695582Y-88232009D01*
X169500968Y-88295244D01*
X169318644Y-88388143D01*
X169274077Y-88420523D01*
X169274077Y-88420524D01*
X169953554Y-89100000D01*
X169947339Y-89100000D01*
X169845606Y-89127259D01*
X169754394Y-89179920D01*
X169679920Y-89254394D01*
X169627259Y-89345606D01*
X169600000Y-89447339D01*
X169600000Y-89453553D01*
X168920524Y-88774077D01*
X168920523Y-88774077D01*
X168888143Y-88818644D01*
X168795244Y-89000968D01*
X168732009Y-89195582D01*
X168700000Y-89397682D01*
X166300500Y-89397682D01*
X166300500Y-89397648D01*
X166278712Y-89260084D01*
X166268477Y-89195465D01*
X166218781Y-89042517D01*
X166205220Y-89000781D01*
X166205218Y-89000778D01*
X166205218Y-89000776D01*
X166112419Y-88818650D01*
X166112287Y-88818390D01*
X166080092Y-88774077D01*
X165991971Y-88652786D01*
X165847213Y-88508028D01*
X165681613Y-88387715D01*
X165681612Y-88387714D01*
X165681610Y-88387713D01*
X165624653Y-88358691D01*
X165499223Y-88294781D01*
X165304534Y-88231522D01*
X165129995Y-88203878D01*
X165102352Y-88199500D01*
X164897648Y-88199500D01*
X164873329Y-88203351D01*
X164695465Y-88231522D01*
X164500776Y-88294781D01*
X164318386Y-88387715D01*
X164152786Y-88508028D01*
X164008028Y-88652786D01*
X163887715Y-88818386D01*
X163794781Y-89000776D01*
X163731522Y-89195465D01*
X163699500Y-89397648D01*
X161850247Y-89397648D01*
X161906741Y-89319891D01*
X161920784Y-89300559D01*
X161927287Y-89291610D01*
X162020220Y-89109219D01*
X162083477Y-88914534D01*
X162115500Y-88712352D01*
X162115500Y-88507648D01*
X162083477Y-88305466D01*
X162080005Y-88294781D01*
X162049209Y-88200000D01*
X162020220Y-88110781D01*
X162020218Y-88110778D01*
X162020218Y-88110776D01*
X161968865Y-88009991D01*
X161927287Y-87928390D01*
X161911892Y-87907200D01*
X161806971Y-87762786D01*
X161662213Y-87618028D01*
X161496611Y-87497713D01*
X161465084Y-87481649D01*
X161414289Y-87433675D01*
X161397494Y-87365853D01*
X161420032Y-87299719D01*
X161433693Y-87283490D01*
X164418366Y-84298819D01*
X164479689Y-84265334D01*
X164506047Y-84262500D01*
X165194207Y-84262500D01*
X165233210Y-84268793D01*
X165297203Y-84289999D01*
X165399991Y-84300500D01*
X166600008Y-84300499D01*
X166702797Y-84289999D01*
X166869334Y-84234814D01*
X167018656Y-84142712D01*
X167142712Y-84018656D01*
X167234814Y-83869334D01*
X167258102Y-83799054D01*
X167262110Y-83791050D01*
X167280060Y-83771772D01*
X167295055Y-83750116D01*
X167303495Y-83746606D01*
X167309725Y-83739917D01*
X167335249Y-83733404D01*
X167359571Y-83723292D01*
X167375834Y-83723048D01*
X167377425Y-83722643D01*
X167378523Y-83723008D01*
X167382719Y-83722946D01*
X167420525Y-83725921D01*
X168100000Y-83046446D01*
X168100000Y-83052661D01*
X168127259Y-83154394D01*
X168179920Y-83245606D01*
X168254394Y-83320080D01*
X168345606Y-83372741D01*
X168447339Y-83400000D01*
X168453553Y-83400000D01*
X167774076Y-84079474D01*
X167818650Y-84111859D01*
X168000968Y-84204755D01*
X168195582Y-84267990D01*
X168397683Y-84300000D01*
X168602317Y-84300000D01*
X168804417Y-84267990D01*
X168999031Y-84204755D01*
X169181349Y-84111859D01*
X169225921Y-84079474D01*
X168546447Y-83400000D01*
X168552661Y-83400000D01*
X168654394Y-83372741D01*
X168745606Y-83320080D01*
X168820080Y-83245606D01*
X168872741Y-83154394D01*
X168900000Y-83052661D01*
X168900000Y-83046447D01*
X169579474Y-83725921D01*
X169611859Y-83681349D01*
X169704755Y-83499031D01*
X169767990Y-83304417D01*
X169800000Y-83102317D01*
X169800000Y-82897682D01*
X169767990Y-82695582D01*
X169704755Y-82500968D01*
X169611859Y-82318650D01*
X169579474Y-82274077D01*
X169579474Y-82274076D01*
X168900000Y-82953551D01*
X168900000Y-82947339D01*
X168872741Y-82845606D01*
X168820080Y-82754394D01*
X168745606Y-82679920D01*
X168654394Y-82627259D01*
X168552661Y-82600000D01*
X168546446Y-82600000D01*
X169225922Y-81920524D01*
X169225921Y-81920523D01*
X169181359Y-81888147D01*
X169181350Y-81888141D01*
X168999031Y-81795244D01*
X168804417Y-81732009D01*
X168602317Y-81700000D01*
X168397683Y-81700000D01*
X168195582Y-81732009D01*
X168000968Y-81795244D01*
X167818644Y-81888143D01*
X167774077Y-81920523D01*
X167774077Y-81920524D01*
X168453554Y-82600000D01*
X168447339Y-82600000D01*
X168345606Y-82627259D01*
X168254394Y-82679920D01*
X168179920Y-82754394D01*
X168127259Y-82845606D01*
X168100000Y-82947339D01*
X168100000Y-82953553D01*
X167420524Y-82274077D01*
X167382719Y-82277053D01*
X167314341Y-82262689D01*
X167264584Y-82213638D01*
X167262110Y-82208949D01*
X167258101Y-82200942D01*
X167234814Y-82130666D01*
X167142712Y-81981344D01*
X167018656Y-81857288D01*
X166869334Y-81765186D01*
X166702797Y-81710001D01*
X166702795Y-81710000D01*
X166600010Y-81699500D01*
X165399998Y-81699500D01*
X165399981Y-81699501D01*
X165297203Y-81710000D01*
X165250044Y-81725627D01*
X165233209Y-81731206D01*
X165194207Y-81737500D01*
X163832380Y-81737500D01*
X163766955Y-81747862D01*
X163636103Y-81768587D01*
X163447111Y-81829993D01*
X163447108Y-81829994D01*
X163270046Y-81920213D01*
X163109274Y-82037021D01*
X154614538Y-90531757D01*
X154614537Y-90531759D01*
X154614536Y-90531760D01*
X154568776Y-90577520D01*
X154553068Y-90593228D01*
X154491744Y-90626712D01*
X154422052Y-90621727D01*
X154366119Y-90579856D01*
X154354902Y-90561840D01*
X154334699Y-90522190D01*
X154307287Y-90468390D01*
X154307286Y-90468388D01*
X154186971Y-90302786D01*
X154042219Y-90158034D01*
X154042211Y-90158028D01*
X153948547Y-90089978D01*
X153905882Y-90034649D01*
X153899903Y-89965036D01*
X153932508Y-89903240D01*
X153982426Y-89871955D01*
X154064334Y-89844814D01*
X154213656Y-89752712D01*
X154337712Y-89628656D01*
X154429814Y-89479334D01*
X154484999Y-89312797D01*
X154495500Y-89210009D01*
X154495499Y-88009992D01*
X154484999Y-87907203D01*
X154429814Y-87740666D01*
X154337712Y-87591344D01*
X154213656Y-87467288D01*
X154064334Y-87375186D01*
X153897797Y-87320001D01*
X153897795Y-87320000D01*
X153795010Y-87309500D01*
X152594998Y-87309500D01*
X152594981Y-87309501D01*
X152492203Y-87320000D01*
X152492200Y-87320001D01*
X152325668Y-87375185D01*
X152325663Y-87375187D01*
X152176342Y-87467289D01*
X152052289Y-87591342D01*
X151960187Y-87740663D01*
X151960186Y-87740666D01*
X151905001Y-87907203D01*
X151905001Y-87907204D01*
X151905000Y-87907204D01*
X151894500Y-88009983D01*
X151894500Y-89210001D01*
X151894501Y-89210018D01*
X151905000Y-89312796D01*
X151905001Y-89312799D01*
X151933118Y-89397648D01*
X151960186Y-89479334D01*
X152052288Y-89628656D01*
X152176344Y-89752712D01*
X152325666Y-89844814D01*
X152407570Y-89871954D01*
X152465015Y-89911727D01*
X152491838Y-89976243D01*
X152479523Y-90045018D01*
X152441451Y-90089978D01*
X152347787Y-90158028D01*
X152347782Y-90158032D01*
X152203028Y-90302786D01*
X152082715Y-90468386D01*
X151989781Y-90650776D01*
X151926522Y-90845465D01*
X151894500Y-91047648D01*
X151894500Y-91252351D01*
X151926522Y-91454534D01*
X151989781Y-91649223D01*
X152082715Y-91831613D01*
X152203028Y-91997213D01*
X152347786Y-92141971D01*
X152502749Y-92254556D01*
X152513390Y-92262287D01*
X152604840Y-92308883D01*
X152606080Y-92309515D01*
X152656876Y-92357490D01*
X152673671Y-92425311D01*
X152651134Y-92491446D01*
X152606080Y-92530485D01*
X152513386Y-92577715D01*
X152347786Y-92698028D01*
X152203028Y-92842786D01*
X152082715Y-93008386D01*
X151989781Y-93190776D01*
X151926522Y-93385465D01*
X151894500Y-93587648D01*
X151894500Y-93792351D01*
X151926522Y-93994534D01*
X151989781Y-94189223D01*
X152082715Y-94371613D01*
X152203028Y-94537213D01*
X152347786Y-94681971D01*
X152513385Y-94802284D01*
X152513387Y-94802285D01*
X152513390Y-94802287D01*
X152601574Y-94847219D01*
X152606630Y-94849795D01*
X152657426Y-94897770D01*
X152674221Y-94965591D01*
X152651684Y-95031725D01*
X152606630Y-95070765D01*
X152513644Y-95118143D01*
X152469077Y-95150523D01*
X152469077Y-95150524D01*
X153148553Y-95830000D01*
X153142339Y-95830000D01*
X153040606Y-95857259D01*
X152949394Y-95909920D01*
X152874920Y-95984394D01*
X152822259Y-96075606D01*
X152795000Y-96177339D01*
X152795000Y-96183553D01*
X152115524Y-95504077D01*
X152115523Y-95504077D01*
X152083143Y-95548644D01*
X151990244Y-95730968D01*
X151927009Y-95925582D01*
X151895000Y-96127682D01*
X151895000Y-96332317D01*
X151927009Y-96534417D01*
X151990244Y-96729031D01*
X152083141Y-96911350D01*
X152083147Y-96911359D01*
X152115523Y-96955921D01*
X152115524Y-96955922D01*
X152795000Y-96276446D01*
X152795000Y-96282661D01*
X152822259Y-96384394D01*
X152874920Y-96475606D01*
X152949394Y-96550080D01*
X153040606Y-96602741D01*
X153142339Y-96630000D01*
X153148552Y-96630000D01*
X152469076Y-97309474D01*
X152513650Y-97341859D01*
X152607180Y-97389515D01*
X152657976Y-97437489D01*
X152674771Y-97505310D01*
X152652234Y-97571445D01*
X152607180Y-97610485D01*
X152513644Y-97658143D01*
X152469077Y-97690523D01*
X152469077Y-97690524D01*
X153148553Y-98370000D01*
X153142339Y-98370000D01*
X153040606Y-98397259D01*
X152949394Y-98449920D01*
X152874920Y-98524394D01*
X152822259Y-98615606D01*
X152795000Y-98717339D01*
X152795000Y-98723553D01*
X152115524Y-98044077D01*
X152115523Y-98044077D01*
X152083143Y-98088644D01*
X151990244Y-98270968D01*
X151927009Y-98465582D01*
X151895000Y-98667682D01*
X151895000Y-98872317D01*
X151927009Y-99074417D01*
X151990244Y-99269031D01*
X152083141Y-99451350D01*
X152083147Y-99451359D01*
X152115523Y-99495921D01*
X152115524Y-99495922D01*
X152795000Y-98816446D01*
X152795000Y-98822661D01*
X152822259Y-98924394D01*
X152874920Y-99015606D01*
X152949394Y-99090080D01*
X153040606Y-99142741D01*
X153142339Y-99170000D01*
X153148552Y-99170000D01*
X152469076Y-99849474D01*
X152513652Y-99881861D01*
X152606628Y-99929234D01*
X152657425Y-99977208D01*
X152674220Y-100045029D01*
X152651683Y-100111164D01*
X152606630Y-100150203D01*
X152513388Y-100197713D01*
X152347786Y-100318028D01*
X152203028Y-100462786D01*
X152082715Y-100628386D01*
X151989781Y-100810776D01*
X151926522Y-101005465D01*
X151894500Y-101207648D01*
X151894500Y-101412351D01*
X151926522Y-101614534D01*
X151989781Y-101809223D01*
X152082715Y-101991613D01*
X152203028Y-102157213D01*
X152347786Y-102301971D01*
X152502749Y-102414556D01*
X152513390Y-102422287D01*
X152604840Y-102468883D01*
X152606080Y-102469515D01*
X152656876Y-102517490D01*
X152673671Y-102585311D01*
X152651134Y-102651446D01*
X152606080Y-102690485D01*
X152513386Y-102737715D01*
X152347786Y-102858028D01*
X152203028Y-103002786D01*
X152082715Y-103168386D01*
X151989781Y-103350776D01*
X151926522Y-103545465D01*
X151894500Y-103747648D01*
X151894500Y-103952351D01*
X151926522Y-104154534D01*
X151989781Y-104349223D01*
X152053691Y-104474653D01*
X152059526Y-104486104D01*
X152082715Y-104531613D01*
X152203028Y-104697213D01*
X152347786Y-104841971D01*
X152477718Y-104936370D01*
X152513390Y-104962287D01*
X152604840Y-105008883D01*
X152606080Y-105009515D01*
X152656876Y-105057490D01*
X152673671Y-105125311D01*
X152651134Y-105191446D01*
X152606080Y-105230485D01*
X152513386Y-105277715D01*
X152347786Y-105398028D01*
X152203028Y-105542786D01*
X152082715Y-105708386D01*
X151989781Y-105890776D01*
X151926522Y-106085465D01*
X151901281Y-106244835D01*
X151894500Y-106287648D01*
X151894500Y-106492352D01*
X151898878Y-106519995D01*
X151926522Y-106694534D01*
X151989781Y-106889223D01*
X152062143Y-107031239D01*
X152075039Y-107099908D01*
X152048763Y-107164649D01*
X152039347Y-107175208D01*
X152037023Y-107177532D01*
X152037020Y-107177535D01*
X152037019Y-107177537D01*
X151997801Y-107231514D01*
X151920213Y-107338305D01*
X151829994Y-107515367D01*
X151829993Y-107515370D01*
X151768587Y-107704362D01*
X151737500Y-107900639D01*
X140500500Y-107900639D01*
X140500500Y-104936370D01*
X144999500Y-104936370D01*
X144999500Y-105168629D01*
X145035831Y-105398014D01*
X145107601Y-105618900D01*
X145213039Y-105825831D01*
X145349551Y-106013724D01*
X145513776Y-106177949D01*
X145701669Y-106314461D01*
X145791130Y-106360044D01*
X145908599Y-106419898D01*
X145908601Y-106419898D01*
X145908604Y-106419900D01*
X146129486Y-106491669D01*
X146247044Y-106510288D01*
X146358871Y-106528000D01*
X146358876Y-106528000D01*
X146591129Y-106528000D01*
X146702949Y-106510289D01*
X146820514Y-106491669D01*
X147041396Y-106419900D01*
X147248331Y-106314461D01*
X147436224Y-106177949D01*
X147600449Y-106013724D01*
X147736961Y-105825831D01*
X147842400Y-105618896D01*
X147914169Y-105398014D01*
X147940315Y-105232930D01*
X147950500Y-105168629D01*
X147950500Y-104936370D01*
X147914596Y-104709685D01*
X147914169Y-104706986D01*
X147842400Y-104486104D01*
X147842398Y-104486101D01*
X147842398Y-104486099D01*
X147736960Y-104279168D01*
X147600449Y-104091276D01*
X147436224Y-103927051D01*
X147248331Y-103790539D01*
X147041400Y-103685101D01*
X146820514Y-103613331D01*
X146591129Y-103577000D01*
X146591124Y-103577000D01*
X146358876Y-103577000D01*
X146358871Y-103577000D01*
X146129485Y-103613331D01*
X145908599Y-103685101D01*
X145701668Y-103790539D01*
X145513773Y-103927053D01*
X145349553Y-104091273D01*
X145213039Y-104279168D01*
X145107601Y-104486099D01*
X145035831Y-104706985D01*
X144999500Y-104936370D01*
X140500500Y-104936370D01*
X140500500Y-98949635D01*
X144999500Y-98949635D01*
X144999500Y-100995370D01*
X144999501Y-100995376D01*
X145005908Y-101054983D01*
X145056202Y-101189828D01*
X145056206Y-101189835D01*
X145142452Y-101305044D01*
X145142455Y-101305047D01*
X145257664Y-101391293D01*
X145257671Y-101391297D01*
X145392517Y-101441591D01*
X145392516Y-101441591D01*
X145399444Y-101442335D01*
X145452127Y-101448000D01*
X147497872Y-101447999D01*
X147557483Y-101441591D01*
X147692331Y-101391296D01*
X147807546Y-101305046D01*
X147893796Y-101189831D01*
X147944091Y-101054983D01*
X147950500Y-100995373D01*
X147950499Y-98949628D01*
X147944091Y-98890017D01*
X147937489Y-98872317D01*
X147893797Y-98755171D01*
X147893793Y-98755164D01*
X147880290Y-98737126D01*
X147828303Y-98667682D01*
X147807546Y-98639954D01*
X147807544Y-98639953D01*
X147807544Y-98639952D01*
X147692335Y-98553706D01*
X147692328Y-98553702D01*
X147557482Y-98503408D01*
X147557483Y-98503408D01*
X147497883Y-98497001D01*
X147497881Y-98497000D01*
X147497873Y-98497000D01*
X147497864Y-98497000D01*
X145452129Y-98497000D01*
X145452123Y-98497001D01*
X145392516Y-98503408D01*
X145257671Y-98553702D01*
X145257664Y-98553706D01*
X145142455Y-98639952D01*
X145142452Y-98639955D01*
X145056206Y-98755164D01*
X145056202Y-98755171D01*
X145005908Y-98890017D01*
X144999501Y-98949616D01*
X144999501Y-98949623D01*
X144999500Y-98949635D01*
X140500500Y-98949635D01*
X140500500Y-89102135D01*
X145149500Y-89102135D01*
X145149500Y-90897870D01*
X145149501Y-90897876D01*
X145155908Y-90957483D01*
X145206202Y-91092328D01*
X145206206Y-91092335D01*
X145292452Y-91207544D01*
X145292455Y-91207547D01*
X145407664Y-91293793D01*
X145407671Y-91293797D01*
X145539082Y-91342810D01*
X145595016Y-91384681D01*
X145619433Y-91450145D01*
X145604582Y-91518418D01*
X145583431Y-91546673D01*
X145469889Y-91660215D01*
X145344951Y-91832179D01*
X145248444Y-92021585D01*
X145182753Y-92223760D01*
X145149500Y-92433713D01*
X145149500Y-92646286D01*
X145180622Y-92842786D01*
X145182754Y-92856243D01*
X145232188Y-93008386D01*
X145248444Y-93058414D01*
X145344951Y-93247820D01*
X145469890Y-93419786D01*
X145620213Y-93570109D01*
X145792179Y-93695048D01*
X145792181Y-93695049D01*
X145792184Y-93695051D01*
X145981588Y-93791557D01*
X146183757Y-93857246D01*
X146393713Y-93890500D01*
X146393714Y-93890500D01*
X146606286Y-93890500D01*
X146606287Y-93890500D01*
X146816243Y-93857246D01*
X147018412Y-93791557D01*
X147207816Y-93695051D01*
X147274716Y-93646446D01*
X147379786Y-93570109D01*
X147379788Y-93570106D01*
X147379792Y-93570104D01*
X147530104Y-93419792D01*
X147530106Y-93419788D01*
X147530109Y-93419786D01*
X147655048Y-93247820D01*
X147655047Y-93247820D01*
X147655051Y-93247816D01*
X147751557Y-93058412D01*
X147817246Y-92856243D01*
X147850500Y-92646287D01*
X147850500Y-92433713D01*
X147817246Y-92223757D01*
X147751557Y-92021588D01*
X147655051Y-91832184D01*
X147655049Y-91832181D01*
X147655048Y-91832179D01*
X147530109Y-91660213D01*
X147416569Y-91546673D01*
X147383084Y-91485350D01*
X147388068Y-91415658D01*
X147429940Y-91359725D01*
X147460915Y-91342810D01*
X147592331Y-91293796D01*
X147707546Y-91207546D01*
X147793796Y-91092331D01*
X147844091Y-90957483D01*
X147850500Y-90897873D01*
X147850499Y-89102128D01*
X147844091Y-89042517D01*
X147828594Y-89000968D01*
X147793797Y-88907671D01*
X147793793Y-88907664D01*
X147707547Y-88792455D01*
X147707544Y-88792452D01*
X147592335Y-88706206D01*
X147592328Y-88706202D01*
X147457482Y-88655908D01*
X147457483Y-88655908D01*
X147397883Y-88649501D01*
X147397881Y-88649500D01*
X147397873Y-88649500D01*
X147397864Y-88649500D01*
X145602129Y-88649500D01*
X145602123Y-88649501D01*
X145542516Y-88655908D01*
X145407671Y-88706202D01*
X145407664Y-88706206D01*
X145292455Y-88792452D01*
X145292452Y-88792455D01*
X145206206Y-88907664D01*
X145206202Y-88907671D01*
X145155908Y-89042517D01*
X145149501Y-89102116D01*
X145149501Y-89102123D01*
X145149500Y-89102135D01*
X140500500Y-89102135D01*
X140500500Y-80327135D01*
X145149500Y-80327135D01*
X145149500Y-82122870D01*
X145149501Y-82122876D01*
X145155908Y-82182483D01*
X145206202Y-82317328D01*
X145206206Y-82317335D01*
X145292452Y-82432544D01*
X145292455Y-82432547D01*
X145407664Y-82518793D01*
X145407671Y-82518797D01*
X145539082Y-82567810D01*
X145595016Y-82609681D01*
X145619433Y-82675145D01*
X145604582Y-82743418D01*
X145583431Y-82771673D01*
X145469889Y-82885215D01*
X145344951Y-83057179D01*
X145248444Y-83246585D01*
X145182753Y-83448760D01*
X145149500Y-83658713D01*
X145149500Y-83871286D01*
X145182473Y-84079474D01*
X145182754Y-84081243D01*
X145243693Y-84268794D01*
X145248444Y-84283414D01*
X145344951Y-84472820D01*
X145469890Y-84644786D01*
X145620213Y-84795109D01*
X145792179Y-84920048D01*
X145792181Y-84920049D01*
X145792184Y-84920051D01*
X145981588Y-85016557D01*
X146183757Y-85082246D01*
X146393713Y-85115500D01*
X146393714Y-85115500D01*
X146606286Y-85115500D01*
X146606287Y-85115500D01*
X146816243Y-85082246D01*
X147018412Y-85016557D01*
X147207816Y-84920051D01*
X147229789Y-84904086D01*
X147379786Y-84795109D01*
X147379788Y-84795106D01*
X147379792Y-84795104D01*
X147530104Y-84644792D01*
X147530106Y-84644788D01*
X147530109Y-84644786D01*
X147655048Y-84472820D01*
X147655047Y-84472820D01*
X147655051Y-84472816D01*
X147751557Y-84283412D01*
X147817246Y-84081243D01*
X147850500Y-83871287D01*
X147850500Y-83658713D01*
X147817246Y-83448757D01*
X147751557Y-83246588D01*
X147655051Y-83057184D01*
X147655049Y-83057181D01*
X147655048Y-83057179D01*
X147530109Y-82885213D01*
X147416569Y-82771673D01*
X147383084Y-82710350D01*
X147388068Y-82640658D01*
X147429940Y-82584725D01*
X147460915Y-82567810D01*
X147592331Y-82518796D01*
X147707546Y-82432546D01*
X147793796Y-82317331D01*
X147844091Y-82182483D01*
X147850500Y-82122873D01*
X147850499Y-80327128D01*
X147844091Y-80267517D01*
X147839333Y-80254759D01*
X147837869Y-80250833D01*
X147793797Y-80132671D01*
X147793793Y-80132664D01*
X147707547Y-80017455D01*
X147707544Y-80017452D01*
X147592335Y-79931206D01*
X147592328Y-79931202D01*
X147457482Y-79880908D01*
X147457483Y-79880908D01*
X147397883Y-79874501D01*
X147397881Y-79874500D01*
X147397873Y-79874500D01*
X147397864Y-79874500D01*
X145602129Y-79874500D01*
X145602123Y-79874501D01*
X145542516Y-79880908D01*
X145407671Y-79931202D01*
X145407664Y-79931206D01*
X145292455Y-80017452D01*
X145292452Y-80017455D01*
X145206206Y-80132664D01*
X145206202Y-80132671D01*
X145155908Y-80267517D01*
X145151177Y-80311530D01*
X145149501Y-80327123D01*
X145149500Y-80327135D01*
X140500500Y-80327135D01*
X140500500Y-78933909D01*
X152472500Y-78933909D01*
X152472500Y-79166090D01*
X152508818Y-79395393D01*
X152580565Y-79616205D01*
X152685965Y-79823064D01*
X152742738Y-79901207D01*
X153346458Y-79297487D01*
X153371478Y-79357890D01*
X153442612Y-79464351D01*
X153533149Y-79554888D01*
X153639610Y-79626022D01*
X153700010Y-79651041D01*
X153096291Y-80254759D01*
X153096291Y-80254760D01*
X153174435Y-80311534D01*
X153381294Y-80416934D01*
X153602106Y-80488681D01*
X153831410Y-80525000D01*
X154063590Y-80525000D01*
X154292893Y-80488681D01*
X154513705Y-80416934D01*
X154720571Y-80311530D01*
X154798707Y-80254762D01*
X154798708Y-80254760D01*
X154194988Y-79651041D01*
X154255390Y-79626022D01*
X154361851Y-79554888D01*
X154452388Y-79464351D01*
X154523522Y-79357890D01*
X154548541Y-79297489D01*
X155152260Y-79901208D01*
X155152262Y-79901207D01*
X155209030Y-79823071D01*
X155314434Y-79616205D01*
X155386181Y-79395393D01*
X155422500Y-79166090D01*
X155422500Y-78933909D01*
X155386181Y-78704606D01*
X155314434Y-78483794D01*
X155209034Y-78276935D01*
X155152260Y-78198791D01*
X155152259Y-78198791D01*
X154548541Y-78802510D01*
X154523522Y-78742110D01*
X154452388Y-78635649D01*
X154361851Y-78545112D01*
X154255390Y-78473978D01*
X154194987Y-78448957D01*
X154616811Y-78027135D01*
X157552000Y-78027135D01*
X157552000Y-80072870D01*
X157552001Y-80072876D01*
X157558408Y-80132483D01*
X157608702Y-80267328D01*
X157608706Y-80267335D01*
X157694952Y-80382544D01*
X157694955Y-80382547D01*
X157810164Y-80468793D01*
X157810171Y-80468797D01*
X157945017Y-80519091D01*
X157945016Y-80519091D01*
X157951944Y-80519835D01*
X158004627Y-80525500D01*
X160050372Y-80525499D01*
X160109983Y-80519091D01*
X160244831Y-80468796D01*
X160360046Y-80382546D01*
X160446296Y-80267331D01*
X160496591Y-80132483D01*
X160503000Y-80072873D01*
X160502999Y-78027128D01*
X160496591Y-77967517D01*
X160446296Y-77832669D01*
X160446295Y-77832668D01*
X160446293Y-77832664D01*
X160360047Y-77717455D01*
X160360044Y-77717452D01*
X160244835Y-77631206D01*
X160244828Y-77631202D01*
X160109982Y-77580908D01*
X160109983Y-77580908D01*
X160050383Y-77574501D01*
X160050381Y-77574500D01*
X160050373Y-77574500D01*
X160050364Y-77574500D01*
X158004629Y-77574500D01*
X158004623Y-77574501D01*
X157945016Y-77580908D01*
X157810171Y-77631202D01*
X157810164Y-77631206D01*
X157694955Y-77717452D01*
X157694952Y-77717455D01*
X157608706Y-77832664D01*
X157608702Y-77832671D01*
X157558408Y-77967517D01*
X157552001Y-78027116D01*
X157552001Y-78027123D01*
X157552000Y-78027135D01*
X154616811Y-78027135D01*
X154707821Y-77936125D01*
X154798707Y-77845238D01*
X154720564Y-77788465D01*
X154513705Y-77683065D01*
X154292893Y-77611318D01*
X154063590Y-77575000D01*
X153831410Y-77575000D01*
X153602106Y-77611318D01*
X153381294Y-77683065D01*
X153174425Y-77788470D01*
X153096291Y-77845237D01*
X153096291Y-77845238D01*
X153700011Y-78448958D01*
X153639610Y-78473978D01*
X153533149Y-78545112D01*
X153442612Y-78635649D01*
X153371478Y-78742110D01*
X153346458Y-78802511D01*
X152742738Y-78198791D01*
X152742737Y-78198791D01*
X152685970Y-78276925D01*
X152580565Y-78483794D01*
X152508818Y-78704606D01*
X152472500Y-78933909D01*
X140500500Y-78933909D01*
X140500500Y-74885258D01*
X141249500Y-74885258D01*
X141249500Y-75114741D01*
X141274446Y-75304215D01*
X141279452Y-75342238D01*
X141279453Y-75342240D01*
X141338842Y-75563887D01*
X141426650Y-75775876D01*
X141426657Y-75775890D01*
X141541392Y-75974617D01*
X141681081Y-76156661D01*
X141681089Y-76156670D01*
X141843330Y-76318911D01*
X141843338Y-76318918D01*
X142025382Y-76458607D01*
X142025385Y-76458608D01*
X142025388Y-76458611D01*
X142224112Y-76573344D01*
X142224117Y-76573346D01*
X142224123Y-76573349D01*
X142315480Y-76611190D01*
X142436113Y-76661158D01*
X142657762Y-76720548D01*
X142885266Y-76750500D01*
X142885273Y-76750500D01*
X143114727Y-76750500D01*
X143114734Y-76750500D01*
X143342238Y-76720548D01*
X143563887Y-76661158D01*
X143775888Y-76573344D01*
X143974612Y-76458611D01*
X144156661Y-76318919D01*
X144156665Y-76318914D01*
X144156670Y-76318911D01*
X144318911Y-76156670D01*
X144318914Y-76156665D01*
X144318919Y-76156661D01*
X144458611Y-75974612D01*
X144573344Y-75775888D01*
X144661158Y-75563887D01*
X144720548Y-75342238D01*
X144750500Y-75114734D01*
X144750500Y-74885266D01*
X144750499Y-74885258D01*
X170249500Y-74885258D01*
X170249500Y-75114741D01*
X170274446Y-75304215D01*
X170279452Y-75342238D01*
X170279453Y-75342240D01*
X170338842Y-75563887D01*
X170426650Y-75775876D01*
X170426657Y-75775890D01*
X170541392Y-75974617D01*
X170681081Y-76156661D01*
X170681089Y-76156670D01*
X170843330Y-76318911D01*
X170843338Y-76318918D01*
X171025382Y-76458607D01*
X171025385Y-76458608D01*
X171025388Y-76458611D01*
X171224112Y-76573344D01*
X171224117Y-76573346D01*
X171224123Y-76573349D01*
X171315480Y-76611190D01*
X171436113Y-76661158D01*
X171657762Y-76720548D01*
X171885266Y-76750500D01*
X171885273Y-76750500D01*
X172114727Y-76750500D01*
X172114734Y-76750500D01*
X172342238Y-76720548D01*
X172563887Y-76661158D01*
X172775888Y-76573344D01*
X172974612Y-76458611D01*
X173156661Y-76318919D01*
X173156665Y-76318914D01*
X173156670Y-76318911D01*
X173318911Y-76156670D01*
X173318914Y-76156665D01*
X173318919Y-76156661D01*
X173458611Y-75974612D01*
X173573344Y-75775888D01*
X173661158Y-75563887D01*
X173720548Y-75342238D01*
X173750500Y-75114734D01*
X173750500Y-74885266D01*
X173720548Y-74657762D01*
X173661158Y-74436113D01*
X173573344Y-74224112D01*
X173458611Y-74025388D01*
X173458608Y-74025385D01*
X173458607Y-74025382D01*
X173318918Y-73843338D01*
X173318911Y-73843330D01*
X173156670Y-73681089D01*
X173156661Y-73681081D01*
X172974617Y-73541392D01*
X172775890Y-73426657D01*
X172775876Y-73426650D01*
X172563887Y-73338842D01*
X172342238Y-73279452D01*
X172304215Y-73274446D01*
X172114741Y-73249500D01*
X172114734Y-73249500D01*
X171885266Y-73249500D01*
X171885258Y-73249500D01*
X171668715Y-73278009D01*
X171657762Y-73279452D01*
X171564076Y-73304554D01*
X171436112Y-73338842D01*
X171224123Y-73426650D01*
X171224109Y-73426657D01*
X171025382Y-73541392D01*
X170843338Y-73681081D01*
X170681081Y-73843338D01*
X170541392Y-74025382D01*
X170426657Y-74224109D01*
X170426650Y-74224123D01*
X170338842Y-74436112D01*
X170279453Y-74657759D01*
X170279451Y-74657770D01*
X170249500Y-74885258D01*
X144750499Y-74885258D01*
X144720548Y-74657762D01*
X144661158Y-74436113D01*
X144573344Y-74224112D01*
X144458611Y-74025388D01*
X144458608Y-74025385D01*
X144458607Y-74025382D01*
X144318918Y-73843338D01*
X144318911Y-73843330D01*
X144156670Y-73681089D01*
X144156661Y-73681081D01*
X143974617Y-73541392D01*
X143775890Y-73426657D01*
X143775876Y-73426650D01*
X143563887Y-73338842D01*
X143342238Y-73279452D01*
X143304215Y-73274446D01*
X143114741Y-73249500D01*
X143114734Y-73249500D01*
X142885266Y-73249500D01*
X142885258Y-73249500D01*
X142668715Y-73278009D01*
X142657762Y-73279452D01*
X142564076Y-73304554D01*
X142436112Y-73338842D01*
X142224123Y-73426650D01*
X142224109Y-73426657D01*
X142025382Y-73541392D01*
X141843338Y-73681081D01*
X141681081Y-73843338D01*
X141541392Y-74025382D01*
X141426657Y-74224109D01*
X141426650Y-74224123D01*
X141338842Y-74436112D01*
X141279453Y-74657759D01*
X141279451Y-74657770D01*
X141249500Y-74885258D01*
X140500500Y-74885258D01*
X140500500Y-72624500D01*
X140520185Y-72557461D01*
X140572989Y-72511706D01*
X140624500Y-72500500D01*
X174375500Y-72500500D01*
X174442539Y-72520185D01*
G37*
%TD.AperFunction*%
%TD*%
M02*
