%TF.GenerationSoftware,KiCad,Pcbnew,9.0.4*%
%TF.CreationDate,2025-11-08T17:36:02+05:30*%
%TF.ProjectId,MOTOR_DRIVER,4d4f544f-525f-4445-9249-5645522e6b69,rev?*%
%TF.SameCoordinates,Original*%
%TF.FileFunction,Legend,Top*%
%TF.FilePolarity,Positive*%
%FSLAX46Y46*%
G04 Gerber Fmt 4.6, Leading zero omitted, Abs format (unit mm)*
G04 Created by KiCad (PCBNEW 9.0.4) date 2025-11-08 17:36:02*
%MOMM*%
%LPD*%
G01*
G04 APERTURE LIST*
%ADD10C,0.100000*%
%ADD11C,0.150000*%
%ADD12C,0.127000*%
%ADD13C,0.200000*%
%ADD14C,0.120000*%
G04 APERTURE END LIST*
D10*
X166420038Y-114853639D02*
X166372419Y-114926211D01*
X166372419Y-114926211D02*
X166372419Y-115035068D01*
X166372419Y-115035068D02*
X166420038Y-115143925D01*
X166420038Y-115143925D02*
X166515276Y-115216496D01*
X166515276Y-115216496D02*
X166610514Y-115252782D01*
X166610514Y-115252782D02*
X166800990Y-115289068D01*
X166800990Y-115289068D02*
X166943847Y-115289068D01*
X166943847Y-115289068D02*
X167134323Y-115252782D01*
X167134323Y-115252782D02*
X167229561Y-115216496D01*
X167229561Y-115216496D02*
X167324800Y-115143925D01*
X167324800Y-115143925D02*
X167372419Y-115035068D01*
X167372419Y-115035068D02*
X167372419Y-114962496D01*
X167372419Y-114962496D02*
X167324800Y-114853639D01*
X167324800Y-114853639D02*
X167277180Y-114817353D01*
X167277180Y-114817353D02*
X166943847Y-114817353D01*
X166943847Y-114817353D02*
X166943847Y-114962496D01*
X167372419Y-114490782D02*
X166372419Y-114490782D01*
X166372419Y-114490782D02*
X167372419Y-114055353D01*
X167372419Y-114055353D02*
X166372419Y-114055353D01*
X167372419Y-113692496D02*
X166372419Y-113692496D01*
X166372419Y-113692496D02*
X166372419Y-113511067D01*
X166372419Y-113511067D02*
X166420038Y-113402210D01*
X166420038Y-113402210D02*
X166515276Y-113329639D01*
X166515276Y-113329639D02*
X166610514Y-113293353D01*
X166610514Y-113293353D02*
X166800990Y-113257067D01*
X166800990Y-113257067D02*
X166943847Y-113257067D01*
X166943847Y-113257067D02*
X167134323Y-113293353D01*
X167134323Y-113293353D02*
X167229561Y-113329639D01*
X167229561Y-113329639D02*
X167324800Y-113402210D01*
X167324800Y-113402210D02*
X167372419Y-113511067D01*
X167372419Y-113511067D02*
X167372419Y-113692496D01*
X163372419Y-115361639D02*
X164372419Y-115107639D01*
X164372419Y-115107639D02*
X163372419Y-114853639D01*
X164277180Y-114164210D02*
X164324800Y-114200496D01*
X164324800Y-114200496D02*
X164372419Y-114309353D01*
X164372419Y-114309353D02*
X164372419Y-114381925D01*
X164372419Y-114381925D02*
X164324800Y-114490782D01*
X164324800Y-114490782D02*
X164229561Y-114563353D01*
X164229561Y-114563353D02*
X164134323Y-114599639D01*
X164134323Y-114599639D02*
X163943847Y-114635925D01*
X163943847Y-114635925D02*
X163800990Y-114635925D01*
X163800990Y-114635925D02*
X163610514Y-114599639D01*
X163610514Y-114599639D02*
X163515276Y-114563353D01*
X163515276Y-114563353D02*
X163420038Y-114490782D01*
X163420038Y-114490782D02*
X163372419Y-114381925D01*
X163372419Y-114381925D02*
X163372419Y-114309353D01*
X163372419Y-114309353D02*
X163420038Y-114200496D01*
X163420038Y-114200496D02*
X163467657Y-114164210D01*
X164277180Y-113402210D02*
X164324800Y-113438496D01*
X164324800Y-113438496D02*
X164372419Y-113547353D01*
X164372419Y-113547353D02*
X164372419Y-113619925D01*
X164372419Y-113619925D02*
X164324800Y-113728782D01*
X164324800Y-113728782D02*
X164229561Y-113801353D01*
X164229561Y-113801353D02*
X164134323Y-113837639D01*
X164134323Y-113837639D02*
X163943847Y-113873925D01*
X163943847Y-113873925D02*
X163800990Y-113873925D01*
X163800990Y-113873925D02*
X163610514Y-113837639D01*
X163610514Y-113837639D02*
X163515276Y-113801353D01*
X163515276Y-113801353D02*
X163420038Y-113728782D01*
X163420038Y-113728782D02*
X163372419Y-113619925D01*
X163372419Y-113619925D02*
X163372419Y-113547353D01*
X163372419Y-113547353D02*
X163420038Y-113438496D01*
X163420038Y-113438496D02*
X163467657Y-113402210D01*
X161348609Y-115252782D02*
X161348609Y-114998782D01*
X161872419Y-114889925D02*
X161872419Y-115252782D01*
X161872419Y-115252782D02*
X160872419Y-115252782D01*
X160872419Y-115252782D02*
X160872419Y-114889925D01*
X161872419Y-114563353D02*
X160872419Y-114563353D01*
X160872419Y-114563353D02*
X161872419Y-114127924D01*
X161872419Y-114127924D02*
X160872419Y-114127924D01*
X160967657Y-113801353D02*
X160920038Y-113765067D01*
X160920038Y-113765067D02*
X160872419Y-113692496D01*
X160872419Y-113692496D02*
X160872419Y-113511067D01*
X160872419Y-113511067D02*
X160920038Y-113438496D01*
X160920038Y-113438496D02*
X160967657Y-113402210D01*
X160967657Y-113402210D02*
X161062895Y-113365924D01*
X161062895Y-113365924D02*
X161158133Y-113365924D01*
X161158133Y-113365924D02*
X161300990Y-113402210D01*
X161300990Y-113402210D02*
X161872419Y-113837638D01*
X161872419Y-113837638D02*
X161872419Y-113365924D01*
X158848609Y-115252782D02*
X158848609Y-114998782D01*
X159372419Y-114889925D02*
X159372419Y-115252782D01*
X159372419Y-115252782D02*
X158372419Y-115252782D01*
X158372419Y-115252782D02*
X158372419Y-114889925D01*
X159372419Y-114563353D02*
X158372419Y-114563353D01*
X158372419Y-114563353D02*
X159372419Y-114127924D01*
X159372419Y-114127924D02*
X158372419Y-114127924D01*
X159372419Y-113365924D02*
X159372419Y-113801353D01*
X159372419Y-113583638D02*
X158372419Y-113583638D01*
X158372419Y-113583638D02*
X158515276Y-113656210D01*
X158515276Y-113656210D02*
X158610514Y-113728781D01*
X158610514Y-113728781D02*
X158658133Y-113801353D01*
X156872419Y-115252782D02*
X155872419Y-115252782D01*
X156872419Y-114889925D02*
X155872419Y-114889925D01*
X155872419Y-114889925D02*
X156872419Y-114454496D01*
X156872419Y-114454496D02*
X155872419Y-114454496D01*
X156205752Y-113765068D02*
X156872419Y-113765068D01*
X155824800Y-113946496D02*
X156539085Y-114127925D01*
X156539085Y-114127925D02*
X156539085Y-113656210D01*
X154372419Y-115252782D02*
X153372419Y-115252782D01*
X154372419Y-114889925D02*
X153372419Y-114889925D01*
X153372419Y-114889925D02*
X154372419Y-114454496D01*
X154372419Y-114454496D02*
X153372419Y-114454496D01*
X153372419Y-114164210D02*
X153372419Y-113692496D01*
X153372419Y-113692496D02*
X153753371Y-113946496D01*
X153753371Y-113946496D02*
X153753371Y-113837639D01*
X153753371Y-113837639D02*
X153800990Y-113765068D01*
X153800990Y-113765068D02*
X153848609Y-113728782D01*
X153848609Y-113728782D02*
X153943847Y-113692496D01*
X153943847Y-113692496D02*
X154181942Y-113692496D01*
X154181942Y-113692496D02*
X154277180Y-113728782D01*
X154277180Y-113728782D02*
X154324800Y-113765068D01*
X154324800Y-113765068D02*
X154372419Y-113837639D01*
X154372419Y-113837639D02*
X154372419Y-114055353D01*
X154372419Y-114055353D02*
X154324800Y-114127925D01*
X154324800Y-114127925D02*
X154277180Y-114164210D01*
X151872419Y-115252782D02*
X150872419Y-115252782D01*
X151872419Y-114889925D02*
X150872419Y-114889925D01*
X150872419Y-114889925D02*
X151872419Y-114454496D01*
X151872419Y-114454496D02*
X150872419Y-114454496D01*
X150967657Y-114127925D02*
X150920038Y-114091639D01*
X150920038Y-114091639D02*
X150872419Y-114019068D01*
X150872419Y-114019068D02*
X150872419Y-113837639D01*
X150872419Y-113837639D02*
X150920038Y-113765068D01*
X150920038Y-113765068D02*
X150967657Y-113728782D01*
X150967657Y-113728782D02*
X151062895Y-113692496D01*
X151062895Y-113692496D02*
X151158133Y-113692496D01*
X151158133Y-113692496D02*
X151300990Y-113728782D01*
X151300990Y-113728782D02*
X151872419Y-114164210D01*
X151872419Y-114164210D02*
X151872419Y-113692496D01*
X149372419Y-115252782D02*
X148372419Y-115252782D01*
X149372419Y-114889925D02*
X148372419Y-114889925D01*
X148372419Y-114889925D02*
X149372419Y-114454496D01*
X149372419Y-114454496D02*
X148372419Y-114454496D01*
X149372419Y-113692496D02*
X149372419Y-114127925D01*
X149372419Y-113910210D02*
X148372419Y-113910210D01*
X148372419Y-113910210D02*
X148515276Y-113982782D01*
X148515276Y-113982782D02*
X148610514Y-114055353D01*
X148610514Y-114055353D02*
X148658133Y-114127925D01*
X154353639Y-74079961D02*
X154426211Y-74127580D01*
X154426211Y-74127580D02*
X154535068Y-74127580D01*
X154535068Y-74127580D02*
X154643925Y-74079961D01*
X154643925Y-74079961D02*
X154716496Y-73984723D01*
X154716496Y-73984723D02*
X154752782Y-73889485D01*
X154752782Y-73889485D02*
X154789068Y-73699009D01*
X154789068Y-73699009D02*
X154789068Y-73556152D01*
X154789068Y-73556152D02*
X154752782Y-73365676D01*
X154752782Y-73365676D02*
X154716496Y-73270438D01*
X154716496Y-73270438D02*
X154643925Y-73175200D01*
X154643925Y-73175200D02*
X154535068Y-73127580D01*
X154535068Y-73127580D02*
X154462496Y-73127580D01*
X154462496Y-73127580D02*
X154353639Y-73175200D01*
X154353639Y-73175200D02*
X154317353Y-73222819D01*
X154317353Y-73222819D02*
X154317353Y-73556152D01*
X154317353Y-73556152D02*
X154462496Y-73556152D01*
X153990782Y-73127580D02*
X153990782Y-74127580D01*
X153990782Y-74127580D02*
X153555353Y-73127580D01*
X153555353Y-73127580D02*
X153555353Y-74127580D01*
X153192496Y-73127580D02*
X153192496Y-74127580D01*
X153192496Y-74127580D02*
X153011067Y-74127580D01*
X153011067Y-74127580D02*
X152902210Y-74079961D01*
X152902210Y-74079961D02*
X152829639Y-73984723D01*
X152829639Y-73984723D02*
X152793353Y-73889485D01*
X152793353Y-73889485D02*
X152757067Y-73699009D01*
X152757067Y-73699009D02*
X152757067Y-73556152D01*
X152757067Y-73556152D02*
X152793353Y-73365676D01*
X152793353Y-73365676D02*
X152829639Y-73270438D01*
X152829639Y-73270438D02*
X152902210Y-73175200D01*
X152902210Y-73175200D02*
X153011067Y-73127580D01*
X153011067Y-73127580D02*
X153192496Y-73127580D01*
X159861639Y-74127580D02*
X159607639Y-73127580D01*
X159607639Y-73127580D02*
X159353639Y-74127580D01*
X159099639Y-73508533D02*
X158519068Y-73508533D01*
X158809353Y-73127580D02*
X158809353Y-73889485D01*
X143651390Y-80247217D02*
X143651390Y-80501217D01*
X143127580Y-80610074D02*
X143127580Y-80247217D01*
X143127580Y-80247217D02*
X144127580Y-80247217D01*
X144127580Y-80247217D02*
X144127580Y-80610074D01*
X143127580Y-80936646D02*
X144127580Y-80936646D01*
X144127580Y-80936646D02*
X143127580Y-81372075D01*
X143127580Y-81372075D02*
X144127580Y-81372075D01*
X144032342Y-81698646D02*
X144079961Y-81734932D01*
X144079961Y-81734932D02*
X144127580Y-81807504D01*
X144127580Y-81807504D02*
X144127580Y-81988932D01*
X144127580Y-81988932D02*
X144079961Y-82061504D01*
X144079961Y-82061504D02*
X144032342Y-82097789D01*
X144032342Y-82097789D02*
X143937104Y-82134075D01*
X143937104Y-82134075D02*
X143841866Y-82134075D01*
X143841866Y-82134075D02*
X143699009Y-82097789D01*
X143699009Y-82097789D02*
X143127580Y-81662361D01*
X143127580Y-81662361D02*
X143127580Y-82134075D01*
X144127580Y-83138360D02*
X143127580Y-83392360D01*
X143127580Y-83392360D02*
X144127580Y-83646360D01*
X143222819Y-84335789D02*
X143175200Y-84299503D01*
X143175200Y-84299503D02*
X143127580Y-84190646D01*
X143127580Y-84190646D02*
X143127580Y-84118074D01*
X143127580Y-84118074D02*
X143175200Y-84009217D01*
X143175200Y-84009217D02*
X143270438Y-83936646D01*
X143270438Y-83936646D02*
X143365676Y-83900360D01*
X143365676Y-83900360D02*
X143556152Y-83864074D01*
X143556152Y-83864074D02*
X143699009Y-83864074D01*
X143699009Y-83864074D02*
X143889485Y-83900360D01*
X143889485Y-83900360D02*
X143984723Y-83936646D01*
X143984723Y-83936646D02*
X144079961Y-84009217D01*
X144079961Y-84009217D02*
X144127580Y-84118074D01*
X144127580Y-84118074D02*
X144127580Y-84190646D01*
X144127580Y-84190646D02*
X144079961Y-84299503D01*
X144079961Y-84299503D02*
X144032342Y-84335789D01*
X143222819Y-85097789D02*
X143175200Y-85061503D01*
X143175200Y-85061503D02*
X143127580Y-84952646D01*
X143127580Y-84952646D02*
X143127580Y-84880074D01*
X143127580Y-84880074D02*
X143175200Y-84771217D01*
X143175200Y-84771217D02*
X143270438Y-84698646D01*
X143270438Y-84698646D02*
X143365676Y-84662360D01*
X143365676Y-84662360D02*
X143556152Y-84626074D01*
X143556152Y-84626074D02*
X143699009Y-84626074D01*
X143699009Y-84626074D02*
X143889485Y-84662360D01*
X143889485Y-84662360D02*
X143984723Y-84698646D01*
X143984723Y-84698646D02*
X144079961Y-84771217D01*
X144079961Y-84771217D02*
X144127580Y-84880074D01*
X144127580Y-84880074D02*
X144127580Y-84952646D01*
X144127580Y-84952646D02*
X144079961Y-85061503D01*
X144079961Y-85061503D02*
X144032342Y-85097789D01*
X143651390Y-89247217D02*
X143651390Y-89501217D01*
X143127580Y-89610074D02*
X143127580Y-89247217D01*
X143127580Y-89247217D02*
X144127580Y-89247217D01*
X144127580Y-89247217D02*
X144127580Y-89610074D01*
X143127580Y-89936646D02*
X144127580Y-89936646D01*
X144127580Y-89936646D02*
X143127580Y-90372075D01*
X143127580Y-90372075D02*
X144127580Y-90372075D01*
X143127580Y-91134075D02*
X143127580Y-90698646D01*
X143127580Y-90916361D02*
X144127580Y-90916361D01*
X144127580Y-90916361D02*
X143984723Y-90843789D01*
X143984723Y-90843789D02*
X143889485Y-90771218D01*
X143889485Y-90771218D02*
X143841866Y-90698646D01*
X144127580Y-92138360D02*
X143127580Y-92392360D01*
X143127580Y-92392360D02*
X144127580Y-92646360D01*
X143222819Y-93335789D02*
X143175200Y-93299503D01*
X143175200Y-93299503D02*
X143127580Y-93190646D01*
X143127580Y-93190646D02*
X143127580Y-93118074D01*
X143127580Y-93118074D02*
X143175200Y-93009217D01*
X143175200Y-93009217D02*
X143270438Y-92936646D01*
X143270438Y-92936646D02*
X143365676Y-92900360D01*
X143365676Y-92900360D02*
X143556152Y-92864074D01*
X143556152Y-92864074D02*
X143699009Y-92864074D01*
X143699009Y-92864074D02*
X143889485Y-92900360D01*
X143889485Y-92900360D02*
X143984723Y-92936646D01*
X143984723Y-92936646D02*
X144079961Y-93009217D01*
X144079961Y-93009217D02*
X144127580Y-93118074D01*
X144127580Y-93118074D02*
X144127580Y-93190646D01*
X144127580Y-93190646D02*
X144079961Y-93299503D01*
X144079961Y-93299503D02*
X144032342Y-93335789D01*
X143222819Y-94097789D02*
X143175200Y-94061503D01*
X143175200Y-94061503D02*
X143127580Y-93952646D01*
X143127580Y-93952646D02*
X143127580Y-93880074D01*
X143127580Y-93880074D02*
X143175200Y-93771217D01*
X143175200Y-93771217D02*
X143270438Y-93698646D01*
X143270438Y-93698646D02*
X143365676Y-93662360D01*
X143365676Y-93662360D02*
X143556152Y-93626074D01*
X143556152Y-93626074D02*
X143699009Y-93626074D01*
X143699009Y-93626074D02*
X143889485Y-93662360D01*
X143889485Y-93662360D02*
X143984723Y-93698646D01*
X143984723Y-93698646D02*
X144079961Y-93771217D01*
X144079961Y-93771217D02*
X144127580Y-93880074D01*
X144127580Y-93880074D02*
X144127580Y-93952646D01*
X144127580Y-93952646D02*
X144079961Y-94061503D01*
X144079961Y-94061503D02*
X144032342Y-94097789D01*
X172872419Y-101107639D02*
X172872419Y-100962496D01*
X172872419Y-100962496D02*
X172920038Y-100889925D01*
X172920038Y-100889925D02*
X173015276Y-100817353D01*
X173015276Y-100817353D02*
X173205752Y-100781068D01*
X173205752Y-100781068D02*
X173539085Y-100781068D01*
X173539085Y-100781068D02*
X173729561Y-100817353D01*
X173729561Y-100817353D02*
X173824800Y-100889925D01*
X173824800Y-100889925D02*
X173872419Y-100962496D01*
X173872419Y-100962496D02*
X173872419Y-101107639D01*
X173872419Y-101107639D02*
X173824800Y-101180211D01*
X173824800Y-101180211D02*
X173729561Y-101252782D01*
X173729561Y-101252782D02*
X173539085Y-101289068D01*
X173539085Y-101289068D02*
X173205752Y-101289068D01*
X173205752Y-101289068D02*
X173015276Y-101252782D01*
X173015276Y-101252782D02*
X172920038Y-101180211D01*
X172920038Y-101180211D02*
X172872419Y-101107639D01*
X172872419Y-100454496D02*
X173681942Y-100454496D01*
X173681942Y-100454496D02*
X173777180Y-100418210D01*
X173777180Y-100418210D02*
X173824800Y-100381925D01*
X173824800Y-100381925D02*
X173872419Y-100309353D01*
X173872419Y-100309353D02*
X173872419Y-100164210D01*
X173872419Y-100164210D02*
X173824800Y-100091639D01*
X173824800Y-100091639D02*
X173777180Y-100055353D01*
X173777180Y-100055353D02*
X173681942Y-100019067D01*
X173681942Y-100019067D02*
X172872419Y-100019067D01*
X172872419Y-99765067D02*
X172872419Y-99329639D01*
X173872419Y-99547353D02*
X172872419Y-99547353D01*
X173205752Y-98749068D02*
X173872419Y-98749068D01*
X172824800Y-98930496D02*
X173539085Y-99111925D01*
X173539085Y-99111925D02*
X173539085Y-98640210D01*
X172872419Y-106607639D02*
X172872419Y-106462496D01*
X172872419Y-106462496D02*
X172920038Y-106389925D01*
X172920038Y-106389925D02*
X173015276Y-106317353D01*
X173015276Y-106317353D02*
X173205752Y-106281068D01*
X173205752Y-106281068D02*
X173539085Y-106281068D01*
X173539085Y-106281068D02*
X173729561Y-106317353D01*
X173729561Y-106317353D02*
X173824800Y-106389925D01*
X173824800Y-106389925D02*
X173872419Y-106462496D01*
X173872419Y-106462496D02*
X173872419Y-106607639D01*
X173872419Y-106607639D02*
X173824800Y-106680211D01*
X173824800Y-106680211D02*
X173729561Y-106752782D01*
X173729561Y-106752782D02*
X173539085Y-106789068D01*
X173539085Y-106789068D02*
X173205752Y-106789068D01*
X173205752Y-106789068D02*
X173015276Y-106752782D01*
X173015276Y-106752782D02*
X172920038Y-106680211D01*
X172920038Y-106680211D02*
X172872419Y-106607639D01*
X172872419Y-105954496D02*
X173681942Y-105954496D01*
X173681942Y-105954496D02*
X173777180Y-105918210D01*
X173777180Y-105918210D02*
X173824800Y-105881925D01*
X173824800Y-105881925D02*
X173872419Y-105809353D01*
X173872419Y-105809353D02*
X173872419Y-105664210D01*
X173872419Y-105664210D02*
X173824800Y-105591639D01*
X173824800Y-105591639D02*
X173777180Y-105555353D01*
X173777180Y-105555353D02*
X173681942Y-105519067D01*
X173681942Y-105519067D02*
X172872419Y-105519067D01*
X172872419Y-105265067D02*
X172872419Y-104829639D01*
X173872419Y-105047353D02*
X172872419Y-105047353D01*
X172872419Y-104648210D02*
X172872419Y-104176496D01*
X172872419Y-104176496D02*
X173253371Y-104430496D01*
X173253371Y-104430496D02*
X173253371Y-104321639D01*
X173253371Y-104321639D02*
X173300990Y-104249068D01*
X173300990Y-104249068D02*
X173348609Y-104212782D01*
X173348609Y-104212782D02*
X173443847Y-104176496D01*
X173443847Y-104176496D02*
X173681942Y-104176496D01*
X173681942Y-104176496D02*
X173777180Y-104212782D01*
X173777180Y-104212782D02*
X173824800Y-104249068D01*
X173824800Y-104249068D02*
X173872419Y-104321639D01*
X173872419Y-104321639D02*
X173872419Y-104539353D01*
X173872419Y-104539353D02*
X173824800Y-104611925D01*
X173824800Y-104611925D02*
X173777180Y-104648210D01*
X141627580Y-103892360D02*
X141627580Y-104037503D01*
X141627580Y-104037503D02*
X141579961Y-104110074D01*
X141579961Y-104110074D02*
X141484723Y-104182646D01*
X141484723Y-104182646D02*
X141294247Y-104218931D01*
X141294247Y-104218931D02*
X140960914Y-104218931D01*
X140960914Y-104218931D02*
X140770438Y-104182646D01*
X140770438Y-104182646D02*
X140675200Y-104110074D01*
X140675200Y-104110074D02*
X140627580Y-104037503D01*
X140627580Y-104037503D02*
X140627580Y-103892360D01*
X140627580Y-103892360D02*
X140675200Y-103819789D01*
X140675200Y-103819789D02*
X140770438Y-103747217D01*
X140770438Y-103747217D02*
X140960914Y-103710931D01*
X140960914Y-103710931D02*
X141294247Y-103710931D01*
X141294247Y-103710931D02*
X141484723Y-103747217D01*
X141484723Y-103747217D02*
X141579961Y-103819789D01*
X141579961Y-103819789D02*
X141627580Y-103892360D01*
X141627580Y-104545503D02*
X140818057Y-104545503D01*
X140818057Y-104545503D02*
X140722819Y-104581789D01*
X140722819Y-104581789D02*
X140675200Y-104618075D01*
X140675200Y-104618075D02*
X140627580Y-104690646D01*
X140627580Y-104690646D02*
X140627580Y-104835789D01*
X140627580Y-104835789D02*
X140675200Y-104908360D01*
X140675200Y-104908360D02*
X140722819Y-104944646D01*
X140722819Y-104944646D02*
X140818057Y-104980932D01*
X140818057Y-104980932D02*
X141627580Y-104980932D01*
X141627580Y-105234932D02*
X141627580Y-105670361D01*
X140627580Y-105452646D02*
X141627580Y-105452646D01*
X141532342Y-105888074D02*
X141579961Y-105924360D01*
X141579961Y-105924360D02*
X141627580Y-105996932D01*
X141627580Y-105996932D02*
X141627580Y-106178360D01*
X141627580Y-106178360D02*
X141579961Y-106250932D01*
X141579961Y-106250932D02*
X141532342Y-106287217D01*
X141532342Y-106287217D02*
X141437104Y-106323503D01*
X141437104Y-106323503D02*
X141341866Y-106323503D01*
X141341866Y-106323503D02*
X141199009Y-106287217D01*
X141199009Y-106287217D02*
X140627580Y-105851789D01*
X140627580Y-105851789D02*
X140627580Y-106323503D01*
X141627580Y-98892360D02*
X141627580Y-99037503D01*
X141627580Y-99037503D02*
X141579961Y-99110074D01*
X141579961Y-99110074D02*
X141484723Y-99182646D01*
X141484723Y-99182646D02*
X141294247Y-99218931D01*
X141294247Y-99218931D02*
X140960914Y-99218931D01*
X140960914Y-99218931D02*
X140770438Y-99182646D01*
X140770438Y-99182646D02*
X140675200Y-99110074D01*
X140675200Y-99110074D02*
X140627580Y-99037503D01*
X140627580Y-99037503D02*
X140627580Y-98892360D01*
X140627580Y-98892360D02*
X140675200Y-98819789D01*
X140675200Y-98819789D02*
X140770438Y-98747217D01*
X140770438Y-98747217D02*
X140960914Y-98710931D01*
X140960914Y-98710931D02*
X141294247Y-98710931D01*
X141294247Y-98710931D02*
X141484723Y-98747217D01*
X141484723Y-98747217D02*
X141579961Y-98819789D01*
X141579961Y-98819789D02*
X141627580Y-98892360D01*
X141627580Y-99545503D02*
X140818057Y-99545503D01*
X140818057Y-99545503D02*
X140722819Y-99581789D01*
X140722819Y-99581789D02*
X140675200Y-99618075D01*
X140675200Y-99618075D02*
X140627580Y-99690646D01*
X140627580Y-99690646D02*
X140627580Y-99835789D01*
X140627580Y-99835789D02*
X140675200Y-99908360D01*
X140675200Y-99908360D02*
X140722819Y-99944646D01*
X140722819Y-99944646D02*
X140818057Y-99980932D01*
X140818057Y-99980932D02*
X141627580Y-99980932D01*
X141627580Y-100234932D02*
X141627580Y-100670361D01*
X140627580Y-100452646D02*
X141627580Y-100452646D01*
X140627580Y-101323503D02*
X140627580Y-100888074D01*
X140627580Y-101105789D02*
X141627580Y-101105789D01*
X141627580Y-101105789D02*
X141484723Y-101033217D01*
X141484723Y-101033217D02*
X141389485Y-100960646D01*
X141389485Y-100960646D02*
X141341866Y-100888074D01*
D11*
X156166666Y-81454819D02*
X156166666Y-82169104D01*
X156166666Y-82169104D02*
X156119047Y-82311961D01*
X156119047Y-82311961D02*
X156023809Y-82407200D01*
X156023809Y-82407200D02*
X155880952Y-82454819D01*
X155880952Y-82454819D02*
X155785714Y-82454819D01*
X156595238Y-81550057D02*
X156642857Y-81502438D01*
X156642857Y-81502438D02*
X156738095Y-81454819D01*
X156738095Y-81454819D02*
X156976190Y-81454819D01*
X156976190Y-81454819D02*
X157071428Y-81502438D01*
X157071428Y-81502438D02*
X157119047Y-81550057D01*
X157119047Y-81550057D02*
X157166666Y-81645295D01*
X157166666Y-81645295D02*
X157166666Y-81740533D01*
X157166666Y-81740533D02*
X157119047Y-81883390D01*
X157119047Y-81883390D02*
X156547619Y-82454819D01*
X156547619Y-82454819D02*
X157166666Y-82454819D01*
X167333333Y-87359580D02*
X167285714Y-87407200D01*
X167285714Y-87407200D02*
X167142857Y-87454819D01*
X167142857Y-87454819D02*
X167047619Y-87454819D01*
X167047619Y-87454819D02*
X166904762Y-87407200D01*
X166904762Y-87407200D02*
X166809524Y-87311961D01*
X166809524Y-87311961D02*
X166761905Y-87216723D01*
X166761905Y-87216723D02*
X166714286Y-87026247D01*
X166714286Y-87026247D02*
X166714286Y-86883390D01*
X166714286Y-86883390D02*
X166761905Y-86692914D01*
X166761905Y-86692914D02*
X166809524Y-86597676D01*
X166809524Y-86597676D02*
X166904762Y-86502438D01*
X166904762Y-86502438D02*
X167047619Y-86454819D01*
X167047619Y-86454819D02*
X167142857Y-86454819D01*
X167142857Y-86454819D02*
X167285714Y-86502438D01*
X167285714Y-86502438D02*
X167333333Y-86550057D01*
X168285714Y-87454819D02*
X167714286Y-87454819D01*
X168000000Y-87454819D02*
X168000000Y-86454819D01*
X168000000Y-86454819D02*
X167904762Y-86597676D01*
X167904762Y-86597676D02*
X167809524Y-86692914D01*
X167809524Y-86692914D02*
X167714286Y-86740533D01*
X146166666Y-87074819D02*
X146166666Y-87789104D01*
X146166666Y-87789104D02*
X146119047Y-87931961D01*
X146119047Y-87931961D02*
X146023809Y-88027200D01*
X146023809Y-88027200D02*
X145880952Y-88074819D01*
X145880952Y-88074819D02*
X145785714Y-88074819D01*
X146547619Y-87074819D02*
X147166666Y-87074819D01*
X147166666Y-87074819D02*
X146833333Y-87455771D01*
X146833333Y-87455771D02*
X146976190Y-87455771D01*
X146976190Y-87455771D02*
X147071428Y-87503390D01*
X147071428Y-87503390D02*
X147119047Y-87551009D01*
X147119047Y-87551009D02*
X147166666Y-87646247D01*
X147166666Y-87646247D02*
X147166666Y-87884342D01*
X147166666Y-87884342D02*
X147119047Y-87979580D01*
X147119047Y-87979580D02*
X147071428Y-88027200D01*
X147071428Y-88027200D02*
X146976190Y-88074819D01*
X146976190Y-88074819D02*
X146690476Y-88074819D01*
X146690476Y-88074819D02*
X146595238Y-88027200D01*
X146595238Y-88027200D02*
X146547619Y-87979580D01*
X156243095Y-85734819D02*
X156243095Y-86544342D01*
X156243095Y-86544342D02*
X156290714Y-86639580D01*
X156290714Y-86639580D02*
X156338333Y-86687200D01*
X156338333Y-86687200D02*
X156433571Y-86734819D01*
X156433571Y-86734819D02*
X156624047Y-86734819D01*
X156624047Y-86734819D02*
X156719285Y-86687200D01*
X156719285Y-86687200D02*
X156766904Y-86639580D01*
X156766904Y-86639580D02*
X156814523Y-86544342D01*
X156814523Y-86544342D02*
X156814523Y-85734819D01*
X157814523Y-86734819D02*
X157243095Y-86734819D01*
X157528809Y-86734819D02*
X157528809Y-85734819D01*
X157528809Y-85734819D02*
X157433571Y-85877676D01*
X157433571Y-85877676D02*
X157338333Y-85972914D01*
X157338333Y-85972914D02*
X157243095Y-86020533D01*
X167083333Y-78959580D02*
X167035714Y-79007200D01*
X167035714Y-79007200D02*
X166892857Y-79054819D01*
X166892857Y-79054819D02*
X166797619Y-79054819D01*
X166797619Y-79054819D02*
X166654762Y-79007200D01*
X166654762Y-79007200D02*
X166559524Y-78911961D01*
X166559524Y-78911961D02*
X166511905Y-78816723D01*
X166511905Y-78816723D02*
X166464286Y-78626247D01*
X166464286Y-78626247D02*
X166464286Y-78483390D01*
X166464286Y-78483390D02*
X166511905Y-78292914D01*
X166511905Y-78292914D02*
X166559524Y-78197676D01*
X166559524Y-78197676D02*
X166654762Y-78102438D01*
X166654762Y-78102438D02*
X166797619Y-78054819D01*
X166797619Y-78054819D02*
X166892857Y-78054819D01*
X166892857Y-78054819D02*
X167035714Y-78102438D01*
X167035714Y-78102438D02*
X167083333Y-78150057D01*
X167464286Y-78150057D02*
X167511905Y-78102438D01*
X167511905Y-78102438D02*
X167607143Y-78054819D01*
X167607143Y-78054819D02*
X167845238Y-78054819D01*
X167845238Y-78054819D02*
X167940476Y-78102438D01*
X167940476Y-78102438D02*
X167988095Y-78150057D01*
X167988095Y-78150057D02*
X168035714Y-78245295D01*
X168035714Y-78245295D02*
X168035714Y-78340533D01*
X168035714Y-78340533D02*
X167988095Y-78483390D01*
X167988095Y-78483390D02*
X167416667Y-79054819D01*
X167416667Y-79054819D02*
X168035714Y-79054819D01*
X145914819Y-111833333D02*
X146629104Y-111833333D01*
X146629104Y-111833333D02*
X146771961Y-111880952D01*
X146771961Y-111880952D02*
X146867200Y-111976190D01*
X146867200Y-111976190D02*
X146914819Y-112119047D01*
X146914819Y-112119047D02*
X146914819Y-112214285D01*
X146914819Y-110833333D02*
X146914819Y-111404761D01*
X146914819Y-111119047D02*
X145914819Y-111119047D01*
X145914819Y-111119047D02*
X146057676Y-111214285D01*
X146057676Y-111214285D02*
X146152914Y-111309523D01*
X146152914Y-111309523D02*
X146200533Y-111404761D01*
X167333333Y-94359580D02*
X167285714Y-94407200D01*
X167285714Y-94407200D02*
X167142857Y-94454819D01*
X167142857Y-94454819D02*
X167047619Y-94454819D01*
X167047619Y-94454819D02*
X166904762Y-94407200D01*
X166904762Y-94407200D02*
X166809524Y-94311961D01*
X166809524Y-94311961D02*
X166761905Y-94216723D01*
X166761905Y-94216723D02*
X166714286Y-94026247D01*
X166714286Y-94026247D02*
X166714286Y-93883390D01*
X166714286Y-93883390D02*
X166761905Y-93692914D01*
X166761905Y-93692914D02*
X166809524Y-93597676D01*
X166809524Y-93597676D02*
X166904762Y-93502438D01*
X166904762Y-93502438D02*
X167047619Y-93454819D01*
X167047619Y-93454819D02*
X167142857Y-93454819D01*
X167142857Y-93454819D02*
X167285714Y-93502438D01*
X167285714Y-93502438D02*
X167333333Y-93550057D01*
X167666667Y-93454819D02*
X168285714Y-93454819D01*
X168285714Y-93454819D02*
X167952381Y-93835771D01*
X167952381Y-93835771D02*
X168095238Y-93835771D01*
X168095238Y-93835771D02*
X168190476Y-93883390D01*
X168190476Y-93883390D02*
X168238095Y-93931009D01*
X168238095Y-93931009D02*
X168285714Y-94026247D01*
X168285714Y-94026247D02*
X168285714Y-94264342D01*
X168285714Y-94264342D02*
X168238095Y-94359580D01*
X168238095Y-94359580D02*
X168190476Y-94407200D01*
X168190476Y-94407200D02*
X168095238Y-94454819D01*
X168095238Y-94454819D02*
X167809524Y-94454819D01*
X167809524Y-94454819D02*
X167714286Y-94407200D01*
X167714286Y-94407200D02*
X167666667Y-94359580D01*
X162394819Y-104725833D02*
X163109104Y-104725833D01*
X163109104Y-104725833D02*
X163251961Y-104773452D01*
X163251961Y-104773452D02*
X163347200Y-104868690D01*
X163347200Y-104868690D02*
X163394819Y-105011547D01*
X163394819Y-105011547D02*
X163394819Y-105106785D01*
X162394819Y-103821071D02*
X162394819Y-104011547D01*
X162394819Y-104011547D02*
X162442438Y-104106785D01*
X162442438Y-104106785D02*
X162490057Y-104154404D01*
X162490057Y-104154404D02*
X162632914Y-104249642D01*
X162632914Y-104249642D02*
X162823390Y-104297261D01*
X162823390Y-104297261D02*
X163204342Y-104297261D01*
X163204342Y-104297261D02*
X163299580Y-104249642D01*
X163299580Y-104249642D02*
X163347200Y-104202023D01*
X163347200Y-104202023D02*
X163394819Y-104106785D01*
X163394819Y-104106785D02*
X163394819Y-103916309D01*
X163394819Y-103916309D02*
X163347200Y-103821071D01*
X163347200Y-103821071D02*
X163299580Y-103773452D01*
X163299580Y-103773452D02*
X163204342Y-103725833D01*
X163204342Y-103725833D02*
X162966247Y-103725833D01*
X162966247Y-103725833D02*
X162871009Y-103773452D01*
X162871009Y-103773452D02*
X162823390Y-103821071D01*
X162823390Y-103821071D02*
X162775771Y-103916309D01*
X162775771Y-103916309D02*
X162775771Y-104106785D01*
X162775771Y-104106785D02*
X162823390Y-104202023D01*
X162823390Y-104202023D02*
X162871009Y-104249642D01*
X162871009Y-104249642D02*
X162966247Y-104297261D01*
X146166666Y-78299819D02*
X146166666Y-79014104D01*
X146166666Y-79014104D02*
X146119047Y-79156961D01*
X146119047Y-79156961D02*
X146023809Y-79252200D01*
X146023809Y-79252200D02*
X145880952Y-79299819D01*
X145880952Y-79299819D02*
X145785714Y-79299819D01*
X147071428Y-78633152D02*
X147071428Y-79299819D01*
X146833333Y-78252200D02*
X146595238Y-78966485D01*
X146595238Y-78966485D02*
X147214285Y-78966485D01*
X151014819Y-100940833D02*
X151729104Y-100940833D01*
X151729104Y-100940833D02*
X151871961Y-100988452D01*
X151871961Y-100988452D02*
X151967200Y-101083690D01*
X151967200Y-101083690D02*
X152014819Y-101226547D01*
X152014819Y-101226547D02*
X152014819Y-101321785D01*
X151014819Y-99988452D02*
X151014819Y-100464642D01*
X151014819Y-100464642D02*
X151491009Y-100512261D01*
X151491009Y-100512261D02*
X151443390Y-100464642D01*
X151443390Y-100464642D02*
X151395771Y-100369404D01*
X151395771Y-100369404D02*
X151395771Y-100131309D01*
X151395771Y-100131309D02*
X151443390Y-100036071D01*
X151443390Y-100036071D02*
X151491009Y-99988452D01*
X151491009Y-99988452D02*
X151586247Y-99940833D01*
X151586247Y-99940833D02*
X151824342Y-99940833D01*
X151824342Y-99940833D02*
X151919580Y-99988452D01*
X151919580Y-99988452D02*
X151967200Y-100036071D01*
X151967200Y-100036071D02*
X152014819Y-100131309D01*
X152014819Y-100131309D02*
X152014819Y-100369404D01*
X152014819Y-100369404D02*
X151967200Y-100464642D01*
X151967200Y-100464642D02*
X151919580Y-100512261D01*
D12*
%TO.C,J2*%
X161567500Y-83150000D02*
X161567500Y-75000000D01*
X161567500Y-75000000D02*
X151407500Y-75000000D01*
X151407500Y-83150000D02*
X161567500Y-83150000D01*
X151407500Y-75000000D02*
X151407500Y-83150000D01*
D13*
X162767500Y-79050000D02*
G75*
G02*
X162567500Y-79050000I-100000J0D01*
G01*
X162567500Y-79050000D02*
G75*
G02*
X162767500Y-79050000I100000J0D01*
G01*
D14*
%TO.C,C1*%
X165030000Y-88130000D02*
X169970000Y-88130000D01*
X165030000Y-88460000D02*
X165030000Y-88130000D01*
X165030000Y-90870000D02*
X165030000Y-90540000D01*
X169970000Y-88130000D02*
X169970000Y-88460000D01*
X169970000Y-90540000D02*
X169970000Y-90870000D01*
X169970000Y-90870000D02*
X165030000Y-90870000D01*
%TO.C,J3*%
X145120000Y-88620000D02*
X146500000Y-88620000D01*
X145120000Y-90000000D02*
X145120000Y-88620000D01*
X145120000Y-91270000D02*
X145120000Y-93920000D01*
X145120000Y-91270000D02*
X147880000Y-91270000D01*
X145120000Y-93920000D02*
X147880000Y-93920000D01*
X147880000Y-91270000D02*
X147880000Y-93920000D01*
%TO.C,U1*%
X154355000Y-87280000D02*
X154355000Y-107720000D01*
X154355000Y-107720000D02*
X159655000Y-107720000D01*
X156005000Y-87280000D02*
X154355000Y-87280000D01*
X159655000Y-87280000D02*
X158005000Y-87280000D01*
X159655000Y-107720000D02*
X159655000Y-87280000D01*
X158005000Y-87280000D02*
G75*
G02*
X156005000Y-87280000I-1000000J0D01*
G01*
%TO.C,C2*%
X163749759Y-81161000D02*
X164379759Y-81161000D01*
X164064759Y-80846000D02*
X164064759Y-81476000D01*
X167250000Y-79770000D02*
X167250000Y-86230000D01*
X167290000Y-79770000D02*
X167290000Y-86230000D01*
X167330000Y-79771000D02*
X167330000Y-86229000D01*
X167370000Y-79772000D02*
X167370000Y-86228000D01*
X167410000Y-79774000D02*
X167410000Y-86226000D01*
X167450000Y-79776000D02*
X167450000Y-86224000D01*
X167490000Y-79779000D02*
X167490000Y-81960000D01*
X167490000Y-84040000D02*
X167490000Y-86221000D01*
X167530000Y-79782000D02*
X167530000Y-81960000D01*
X167530000Y-84040000D02*
X167530000Y-86218000D01*
X167570000Y-79786000D02*
X167570000Y-81960000D01*
X167570000Y-84040000D02*
X167570000Y-86214000D01*
X167610000Y-79790000D02*
X167610000Y-81960000D01*
X167610000Y-84040000D02*
X167610000Y-86210000D01*
X167650000Y-79795000D02*
X167650000Y-81960000D01*
X167650000Y-84040000D02*
X167650000Y-86205000D01*
X167690000Y-79800000D02*
X167690000Y-81960000D01*
X167690000Y-84040000D02*
X167690000Y-86200000D01*
X167730000Y-79805000D02*
X167730000Y-81960000D01*
X167730000Y-84040000D02*
X167730000Y-86195000D01*
X167770000Y-79812000D02*
X167770000Y-81960000D01*
X167770000Y-84040000D02*
X167770000Y-86188000D01*
X167810000Y-79818000D02*
X167810000Y-81960000D01*
X167810000Y-84040000D02*
X167810000Y-86182000D01*
X167850000Y-79826000D02*
X167850000Y-81960000D01*
X167850000Y-84040000D02*
X167850000Y-86174000D01*
X167890000Y-79833000D02*
X167890000Y-81960000D01*
X167890000Y-84040000D02*
X167890000Y-86167000D01*
X167930000Y-79841000D02*
X167930000Y-81960000D01*
X167930000Y-84040000D02*
X167930000Y-86159000D01*
X167970000Y-79850000D02*
X167970000Y-81960000D01*
X167970000Y-84040000D02*
X167970000Y-86150000D01*
X168010000Y-79860000D02*
X168010000Y-81960000D01*
X168010000Y-84040000D02*
X168010000Y-86140000D01*
X168050000Y-79869000D02*
X168050000Y-81960000D01*
X168050000Y-84040000D02*
X168050000Y-86131000D01*
X168090000Y-79880000D02*
X168090000Y-81960000D01*
X168090000Y-84040000D02*
X168090000Y-86120000D01*
X168130000Y-79891000D02*
X168130000Y-81960000D01*
X168130000Y-84040000D02*
X168130000Y-86109000D01*
X168170000Y-79902000D02*
X168170000Y-81960000D01*
X168170000Y-84040000D02*
X168170000Y-86098000D01*
X168210000Y-79914000D02*
X168210000Y-81960000D01*
X168210000Y-84040000D02*
X168210000Y-86086000D01*
X168250000Y-79927000D02*
X168250000Y-81960000D01*
X168250000Y-84040000D02*
X168250000Y-86073000D01*
X168290000Y-79940000D02*
X168290000Y-81960000D01*
X168290000Y-84040000D02*
X168290000Y-86060000D01*
X168330000Y-79953000D02*
X168330000Y-81960000D01*
X168330000Y-84040000D02*
X168330000Y-86047000D01*
X168370000Y-79968000D02*
X168370000Y-81960000D01*
X168370000Y-84040000D02*
X168370000Y-86032000D01*
X168410000Y-79983000D02*
X168410000Y-81960000D01*
X168410000Y-84040000D02*
X168410000Y-86017000D01*
X168450000Y-79998000D02*
X168450000Y-81960000D01*
X168450000Y-84040000D02*
X168450000Y-86002000D01*
X168490000Y-80014000D02*
X168490000Y-81960000D01*
X168490000Y-84040000D02*
X168490000Y-85986000D01*
X168530000Y-80031000D02*
X168530000Y-81960000D01*
X168530000Y-84040000D02*
X168530000Y-85969000D01*
X168570000Y-80048000D02*
X168570000Y-81960000D01*
X168570000Y-84040000D02*
X168570000Y-85952000D01*
X168610000Y-80066000D02*
X168610000Y-81960000D01*
X168610000Y-84040000D02*
X168610000Y-85934000D01*
X168650000Y-80085000D02*
X168650000Y-81960000D01*
X168650000Y-84040000D02*
X168650000Y-85915000D01*
X168690000Y-80104000D02*
X168690000Y-81960000D01*
X168690000Y-84040000D02*
X168690000Y-85896000D01*
X168730000Y-80124000D02*
X168730000Y-81960000D01*
X168730000Y-84040000D02*
X168730000Y-85876000D01*
X168770000Y-80145000D02*
X168770000Y-81960000D01*
X168770000Y-84040000D02*
X168770000Y-85855000D01*
X168810000Y-80166000D02*
X168810000Y-81960000D01*
X168810000Y-84040000D02*
X168810000Y-85834000D01*
X168850000Y-80188000D02*
X168850000Y-81960000D01*
X168850000Y-84040000D02*
X168850000Y-85812000D01*
X168890000Y-80211000D02*
X168890000Y-81960000D01*
X168890000Y-84040000D02*
X168890000Y-85789000D01*
X168930000Y-80235000D02*
X168930000Y-81960000D01*
X168930000Y-84040000D02*
X168930000Y-85765000D01*
X168970000Y-80259000D02*
X168970000Y-81960000D01*
X168970000Y-84040000D02*
X168970000Y-85741000D01*
X169010000Y-80284000D02*
X169010000Y-81960000D01*
X169010000Y-84040000D02*
X169010000Y-85716000D01*
X169050000Y-80310000D02*
X169050000Y-81960000D01*
X169050000Y-84040000D02*
X169050000Y-85690000D01*
X169090000Y-80337000D02*
X169090000Y-81960000D01*
X169090000Y-84040000D02*
X169090000Y-85663000D01*
X169130000Y-80364000D02*
X169130000Y-81960000D01*
X169130000Y-84040000D02*
X169130000Y-85636000D01*
X169170000Y-80393000D02*
X169170000Y-81960000D01*
X169170000Y-84040000D02*
X169170000Y-85607000D01*
X169210000Y-80423000D02*
X169210000Y-81960000D01*
X169210000Y-84040000D02*
X169210000Y-85577000D01*
X169250000Y-80453000D02*
X169250000Y-81960000D01*
X169250000Y-84040000D02*
X169250000Y-85547000D01*
X169290000Y-80484000D02*
X169290000Y-81960000D01*
X169290000Y-84040000D02*
X169290000Y-85516000D01*
X169330000Y-80517000D02*
X169330000Y-81960000D01*
X169330000Y-84040000D02*
X169330000Y-85483000D01*
X169370000Y-80550000D02*
X169370000Y-81960000D01*
X169370000Y-84040000D02*
X169370000Y-85450000D01*
X169410000Y-80585000D02*
X169410000Y-81960000D01*
X169410000Y-84040000D02*
X169410000Y-85415000D01*
X169450000Y-80621000D02*
X169450000Y-81960000D01*
X169450000Y-84040000D02*
X169450000Y-85379000D01*
X169490000Y-80658000D02*
X169490000Y-81960000D01*
X169490000Y-84040000D02*
X169490000Y-85342000D01*
X169530000Y-80696000D02*
X169530000Y-81960000D01*
X169530000Y-84040000D02*
X169530000Y-85304000D01*
X169570000Y-80736000D02*
X169570000Y-85264000D01*
X169610000Y-80777000D02*
X169610000Y-85223000D01*
X169650000Y-80819000D02*
X169650000Y-85181000D01*
X169690000Y-80863000D02*
X169690000Y-85137000D01*
X169730000Y-80909000D02*
X169730000Y-85091000D01*
X169770000Y-80956000D02*
X169770000Y-85044000D01*
X169810000Y-81005000D02*
X169810000Y-84995000D01*
X169850000Y-81057000D02*
X169850000Y-84943000D01*
X169890000Y-81110000D02*
X169890000Y-84890000D01*
X169930000Y-81166000D02*
X169930000Y-84834000D01*
X169970000Y-81225000D02*
X169970000Y-84775000D01*
X170010000Y-81286000D02*
X170010000Y-84714000D01*
X170050000Y-81351000D02*
X170050000Y-84649000D01*
X170090000Y-81419000D02*
X170090000Y-84581000D01*
X170130000Y-81491000D02*
X170130000Y-84509000D01*
X170170000Y-81568000D02*
X170170000Y-84432000D01*
X170210000Y-81650000D02*
X170210000Y-84350000D01*
X170250000Y-81739000D02*
X170250000Y-84261000D01*
X170290000Y-81835000D02*
X170290000Y-84165000D01*
X170330000Y-81942000D02*
X170330000Y-84058000D01*
X170370000Y-82061000D02*
X170370000Y-83939000D01*
X170410000Y-82199000D02*
X170410000Y-83801000D01*
X170450000Y-82367000D02*
X170450000Y-83633000D01*
X170490000Y-82598000D02*
X170490000Y-83402000D01*
X170520000Y-83000000D02*
G75*
G02*
X163980000Y-83000000I-3270000J0D01*
G01*
X163980000Y-83000000D02*
G75*
G02*
X170520000Y-83000000I3270000J0D01*
G01*
%TO.C,J1*%
X147460000Y-112880000D02*
X147460000Y-111500000D01*
X148840000Y-112880000D02*
X147460000Y-112880000D01*
X150110000Y-112880000D02*
X168000000Y-112880000D01*
X150110000Y-112880000D02*
X150110000Y-110120000D01*
X168000000Y-112880000D02*
X168000000Y-110120000D01*
X150110000Y-110120000D02*
X168000000Y-110120000D01*
%TO.C,C3*%
X165030000Y-92630000D02*
X169970000Y-92630000D01*
X165030000Y-92960000D02*
X165030000Y-92630000D01*
X165030000Y-95370000D02*
X165030000Y-95040000D01*
X169970000Y-92630000D02*
X169970000Y-92960000D01*
X169970000Y-95040000D02*
X169970000Y-95370000D01*
X169970000Y-95370000D02*
X165030000Y-95370000D01*
D12*
%TO.C,J6*%
X163925000Y-107567500D02*
X172075000Y-107567500D01*
X172075000Y-107567500D02*
X172075000Y-97407500D01*
X163925000Y-97407500D02*
X163925000Y-107567500D01*
X172075000Y-97407500D02*
X163925000Y-97407500D01*
D13*
X168125000Y-108667500D02*
G75*
G02*
X167925000Y-108667500I-100000J0D01*
G01*
X167925000Y-108667500D02*
G75*
G02*
X168125000Y-108667500I100000J0D01*
G01*
D14*
%TO.C,J4*%
X145120000Y-79845000D02*
X146500000Y-79845000D01*
X145120000Y-81225000D02*
X145120000Y-79845000D01*
X145120000Y-82495000D02*
X145120000Y-85145000D01*
X145120000Y-82495000D02*
X147880000Y-82495000D01*
X145120000Y-85145000D02*
X147880000Y-85145000D01*
X147880000Y-82495000D02*
X147880000Y-85145000D01*
D12*
%TO.C,J5*%
X150575000Y-97432500D02*
X142425000Y-97432500D01*
X142425000Y-97432500D02*
X142425000Y-107592500D01*
X150575000Y-107592500D02*
X150575000Y-97432500D01*
X142425000Y-107592500D02*
X150575000Y-107592500D01*
D13*
X146575000Y-96332500D02*
G75*
G02*
X146375000Y-96332500I-100000J0D01*
G01*
X146375000Y-96332500D02*
G75*
G02*
X146575000Y-96332500I100000J0D01*
G01*
%TD*%
M02*
