%TF.GenerationSoftware,KiCad,Pcbnew,9.0.4*%
%TF.CreationDate,2025-11-08T17:36:02+05:30*%
%TF.ProjectId,MOTOR_DRIVER,4d4f544f-525f-4445-9249-5645522e6b69,rev?*%
%TF.SameCoordinates,Original*%
%TF.FileFunction,Soldermask,Bot*%
%TF.FilePolarity,Negative*%
%FSLAX46Y46*%
G04 Gerber Fmt 4.6, Leading zero omitted, Abs format (unit mm)*
G04 Created by KiCad (PCBNEW 9.0.4) date 2025-11-08 17:36:02*
%MOMM*%
%LPD*%
G01*
G04 APERTURE LIST*
G04 Aperture macros list*
%AMRoundRect*
0 Rectangle with rounded corners*
0 $1 Rounding radius*
0 $2 $3 $4 $5 $6 $7 $8 $9 X,Y pos of 4 corners*
0 Add a 4 corners polygon primitive as box body*
4,1,4,$2,$3,$4,$5,$6,$7,$8,$9,$2,$3,0*
0 Add four circle primitives for the rounded corners*
1,1,$1+$1,$2,$3*
1,1,$1+$1,$4,$5*
1,1,$1+$1,$6,$7*
1,1,$1+$1,$8,$9*
0 Add four rect primitives between the rounded corners*
20,1,$1+$1,$2,$3,$4,$5,0*
20,1,$1+$1,$4,$5,$6,$7,0*
20,1,$1+$1,$6,$7,$8,$9,0*
20,1,$1+$1,$8,$9,$2,$3,0*%
G04 Aperture macros list end*
%ADD10C,3.000000*%
%ADD11RoundRect,0.102000X0.975000X0.975000X-0.975000X0.975000X-0.975000X-0.975000X0.975000X-0.975000X0*%
%ADD12C,2.154000*%
%ADD13C,1.600000*%
%ADD14R,1.700000X1.700000*%
%ADD15C,1.700000*%
%ADD16RoundRect,0.250000X-0.550000X-0.550000X0.550000X-0.550000X0.550000X0.550000X-0.550000X0.550000X0*%
%ADD17RoundRect,0.102000X0.975000X-0.975000X0.975000X0.975000X-0.975000X0.975000X-0.975000X-0.975000X0*%
%ADD18RoundRect,0.102000X-0.975000X0.975000X-0.975000X-0.975000X0.975000X-0.975000X0.975000X0.975000X0*%
G04 APERTURE END LIST*
D10*
%TO.C,REF\u002A\u002A*%
X143000000Y-113000000D03*
%TD*%
%TO.C,REF\u002A\u002A*%
X143000000Y-75000000D03*
%TD*%
%TO.C,REF\u002A\u002A*%
X172000000Y-75000000D03*
%TD*%
%TO.C,REF\u002A\u002A*%
X172000000Y-112500000D03*
%TD*%
D11*
%TO.C,J2*%
X159027500Y-79050000D03*
D12*
X153947500Y-79050000D03*
%TD*%
D13*
%TO.C,C1*%
X165000000Y-89500000D03*
X170000000Y-89500000D03*
%TD*%
D14*
%TO.C,J3*%
X146500000Y-90000000D03*
D15*
X146500000Y-92540000D03*
%TD*%
D16*
%TO.C,U1*%
X153195000Y-88610000D03*
D13*
X153195000Y-91150000D03*
X153195000Y-93690000D03*
X153195000Y-96230000D03*
X153195000Y-98770000D03*
X153195000Y-101310000D03*
X153195000Y-103850000D03*
X153195000Y-106390000D03*
X160815000Y-106390000D03*
X160815000Y-103850000D03*
X160815000Y-101310000D03*
X160815000Y-98770000D03*
X160815000Y-96230000D03*
X160815000Y-93690000D03*
X160815000Y-91150000D03*
X160815000Y-88610000D03*
%TD*%
D16*
%TO.C,C2*%
X166000000Y-83000000D03*
D13*
X168500000Y-83000000D03*
%TD*%
D14*
%TO.C,J1*%
X148840000Y-111500000D03*
D15*
X151380000Y-111500000D03*
X153920000Y-111500000D03*
X156460000Y-111500000D03*
X159000000Y-111500000D03*
X161540000Y-111500000D03*
X164080000Y-111500000D03*
X166620000Y-111500000D03*
%TD*%
D13*
%TO.C,C3*%
X165000000Y-94000000D03*
X170000000Y-94000000D03*
%TD*%
D17*
%TO.C,J6*%
X168025000Y-105027500D03*
D12*
X168025000Y-99947500D03*
%TD*%
D14*
%TO.C,J4*%
X146500000Y-81225000D03*
D15*
X146500000Y-83765000D03*
%TD*%
D18*
%TO.C,J5*%
X146475000Y-99972500D03*
D12*
X146475000Y-105052500D03*
%TD*%
M02*
