%TF.GenerationSoftware,KiCad,Pcbnew,9.0.4*%
%TF.CreationDate,2025-11-08T17:35:58+05:30*%
%TF.ProjectId,MOTOR_DRIVER,4d4f544f-525f-4445-9249-5645522e6b69,rev?*%
%TF.SameCoordinates,Original*%
%TF.FileFunction,Plated,1,2,PTH,Drill*%
%TF.FilePolarity,Positive*%
%FSLAX46Y46*%
G04 Gerber Fmt 4.6, Leading zero omitted, Abs format (unit mm)*
G04 Created by KiCad (PCBNEW 9.0.4) date 2025-11-08 17:35:58*
%MOMM*%
%LPD*%
G01*
G04 APERTURE LIST*
%TA.AperFunction,ViaDrill*%
%ADD10C,0.300000*%
%TD*%
%TA.AperFunction,ComponentDrill*%
%ADD11C,0.800000*%
%TD*%
%TA.AperFunction,ComponentDrill*%
%ADD12C,1.000000*%
%TD*%
%TA.AperFunction,ComponentDrill*%
%ADD13C,1.300000*%
%TD*%
G04 APERTURE END LIST*
D10*
X153000000Y-108000000D03*
X154500000Y-81500000D03*
X156500000Y-109000000D03*
X157500000Y-106000000D03*
X171000000Y-97500000D03*
D11*
%TO.C,U1*%
X153195000Y-88610000D03*
X153195000Y-91150000D03*
X153195000Y-93690000D03*
X153195000Y-96230000D03*
X153195000Y-98770000D03*
X153195000Y-101310000D03*
X153195000Y-103850000D03*
X153195000Y-106390000D03*
X160815000Y-88610000D03*
X160815000Y-91150000D03*
X160815000Y-93690000D03*
X160815000Y-96230000D03*
X160815000Y-98770000D03*
X160815000Y-101310000D03*
X160815000Y-103850000D03*
X160815000Y-106390000D03*
%TO.C,C1*%
X165000000Y-89500000D03*
%TO.C,C3*%
X165000000Y-94000000D03*
%TO.C,C2*%
X166000000Y-83000000D03*
X168500000Y-83000000D03*
%TO.C,C1*%
X170000000Y-89500000D03*
%TO.C,C3*%
X170000000Y-94000000D03*
D12*
%TO.C,J4*%
X146500000Y-81225000D03*
X146500000Y-83765000D03*
%TO.C,J3*%
X146500000Y-90000000D03*
X146500000Y-92540000D03*
%TO.C,J1*%
X148840000Y-111500000D03*
X151380000Y-111500000D03*
X153920000Y-111500000D03*
X156460000Y-111500000D03*
X159000000Y-111500000D03*
X161540000Y-111500000D03*
X164080000Y-111500000D03*
X166620000Y-111500000D03*
D13*
%TO.C,J5*%
X146475000Y-99972500D03*
X146475000Y-105052500D03*
%TO.C,J2*%
X153947500Y-79050000D03*
X159027500Y-79050000D03*
%TO.C,J6*%
X168025000Y-99947500D03*
X168025000Y-105027500D03*
M02*
